<svg width="48" height="48" viewBox="0 0 48 48" fill="none" xmlns="http://www.w3.org/2000/svg">
<path d="M28.3117 23.6446C28.0709 23.6446 27.8473 23.5784 27.6487 23.4719V23.4748C27.6487 23.8536 27.5014 24.2094 27.2343 24.4758C26.9671 24.743 26.6116 24.8903 26.2332 24.8903C25.9889 24.8903 25.7625 24.8224 25.5617 24.7131C25.5415 25.0597 25.4029 25.3836 25.1558 25.631C24.8886 25.8982 24.5331 26.0454 24.1545 26.0454C23.4022 26.0454 22.7913 25.4541 22.7473 24.7129C22.5145 24.8387 22.2513 24.9046 21.9799 24.8872C21.2398 24.8387 20.6603 24.1993 20.6603 23.4312V17.0645L19.9353 18.3205C19.6592 18.8009 19.1423 19.0991 18.5858 19.0991C18.3147 19.0991 18.0468 19.028 17.8095 18.892C17.5141 18.7208 17.3028 18.4458 17.2149 18.1169C17.1265 17.7878 17.1722 17.4436 17.3431 17.1486C17.3433 17.1486 19.715 13.0414 19.8597 12.7891C19.8769 12.7512 19.9259 12.6411 19.9676 12.5474C20.0075 12.4578 20.0416 12.366 20.0744 12.2736C20.7896 10.2543 22.5607 8.99998 24.6966 8.99998C27.4703 8.99998 29.7268 11.4469 29.7268 14.4546L29.727 22.2289C29.727 22.6073 29.58 22.9628 29.3131 23.2302C29.0459 23.4974 28.6904 23.6447 28.3116 23.6447L28.3117 23.6446ZM24.6966 9.75212C22.8613 9.75212 21.3984 10.7888 20.7833 12.5251C20.744 12.6354 20.703 12.7457 20.6552 12.8531C20.5164 13.1643 20.5164 13.1643 20.4773 13.2091L20.4721 13.2046C20.2784 13.57 19.7031 14.5663 17.9943 17.525C17.9241 17.6463 17.9055 17.7872 17.9413 17.922C17.9776 18.0567 18.0645 18.1703 18.1849 18.2398C18.5586 18.4544 19.0703 18.3159 19.2833 17.9448L20.7108 15.4734C20.7961 15.3261 20.9685 15.2538 21.1339 15.2986C21.2983 15.3426 21.4126 15.4918 21.4126 15.6619V23.4314C21.4126 23.798 21.6892 24.1144 22.0292 24.1368C22.2252 24.1471 22.408 24.0814 22.5454 23.9443C22.6702 23.8194 22.739 23.6531 22.739 23.4752V18.3938C22.739 18.186 22.9075 18.0176 23.1153 18.0176C23.3231 18.0176 23.4915 18.1858 23.4915 18.3938L23.4913 24.6302C23.4913 24.9958 23.7889 25.2934 24.1545 25.2934C24.3321 25.2934 24.499 25.2246 24.6241 25.0997C24.7489 24.9746 24.8177 24.8078 24.8177 24.6302V18.3938C24.8177 18.186 24.9859 18.0176 25.194 18.0176C25.4018 18.0176 25.5702 18.1858 25.5702 18.3938L25.57 23.4168V23.4752C25.57 23.8406 25.8675 24.1381 26.2334 24.1381C26.4108 24.1381 26.5772 24.0691 26.703 23.9438C26.8278 23.8191 26.8966 23.6528 26.8966 23.4749V18.3936C26.8966 18.1858 27.0649 18.0173 27.2729 18.0173C27.4807 18.0173 27.6491 18.1855 27.6491 18.3936L27.6487 22.2291C27.6487 22.595 27.9462 22.8925 28.3116 22.8925C28.4895 22.8925 28.6558 22.8235 28.7807 22.6989C28.906 22.5736 28.9746 22.4067 28.9746 22.2291L28.9748 14.4548C28.9748 11.862 27.0557 9.7522 24.6966 9.7522L24.6966 9.75212Z" fill="#103E13"/>
<path d="M13.5292 29.048L18.9889 25.7727C19.6472 25.3774 20.4942 25.5454 20.9164 26.1553C21.0704 26.3775 21.1491 26.6364 21.1614 26.9001C21.3649 26.7938 21.5864 26.7361 21.8119 26.7361C21.9273 26.7361 22.0432 26.7505 22.1577 26.779C22.5245 26.8706 22.8336 27.0999 23.028 27.424C23.2226 27.7487 23.2794 28.1291 23.1878 28.4955C23.1032 28.8346 22.897 29.1199 22.6103 29.3157C22.8108 29.4339 22.9837 29.5953 23.1067 29.8008C23.3013 30.1254 23.3581 30.5057 23.2667 30.8725C23.1751 31.2389 22.9458 31.548 22.6212 31.7429L22.6193 31.744C22.8162 31.8621 22.9861 32.0218 23.1077 32.2242C23.3025 32.5488 23.3593 32.9293 23.2676 33.2961C23.1758 33.6627 22.9465 33.9718 22.6224 34.1664L15.956 38.1657C14.7118 38.9119 13.2734 39.1694 11.9065 38.8902C10.5273 38.6084 9.38509 37.8157 8.69059 36.6579C7.5915 34.8261 7.75622 32.6619 9.11961 31.0101C9.18205 30.9347 9.24354 30.8579 9.29937 30.7783C9.35851 30.6942 9.42754 30.5952 9.4511 30.5613C9.59222 30.3092 11.895 26.1603 11.8947 26.1608C12.1273 25.7412 12.5631 25.5037 13.0126 25.5039C13.2223 25.5039 13.4351 25.5555 13.6313 25.6644C13.8683 25.7968 14.0674 25.9898 14.2067 26.2223C14.4929 26.6994 14.5031 27.2964 14.2335 27.7796L13.5292 29.048ZM13.562 26.6091C13.4889 26.4873 13.3886 26.3902 13.2658 26.3214C13.0121 26.181 12.6926 26.2724 12.5529 26.5252C10.9052 29.4937 10.3435 30.5054 10.1267 30.8654L10.1317 30.8666C10.1135 30.9269 10.1135 30.9269 9.91514 31.2103C9.84776 31.3062 9.77449 31.3983 9.69981 31.489C8.52744 32.9094 8.39132 34.6969 9.33534 36.2709C9.92009 37.2458 10.8865 37.9142 12.0567 38.1531C13.2396 38.3937 14.4864 38.1699 15.5686 37.5206L22.2356 33.5211C22.3878 33.4299 22.4952 33.285 22.5381 33.1133C22.581 32.9417 22.5543 32.7634 22.4629 32.6112C22.2749 32.2979 21.8666 32.1949 21.5533 32.3836L18.2644 34.3568C18.0862 34.4637 17.8549 34.4062 17.7482 34.2279C17.6412 34.0498 17.6989 33.8187 17.877 33.7117L21.1662 31.7386L22.2344 31.0977C22.3866 31.0063 22.4943 30.8614 22.5371 30.6901C22.58 30.5184 22.5534 30.3398 22.462 30.1878C22.2737 29.8743 21.8655 29.7723 21.5523 29.9603L17.195 32.5742C17.0164 32.6814 16.7857 32.6235 16.6788 32.4454C16.5718 32.2673 16.6298 32.0361 16.8076 31.9292L22.1555 28.7211C22.3077 28.6296 22.4151 28.485 22.458 28.3132C22.5009 28.1417 22.4742 27.9634 22.3831 27.8112C22.2919 27.6592 22.147 27.5518 21.9753 27.5089C21.8026 27.466 21.6249 27.4927 21.4732 27.5836L20.4832 28.1775C20.483 28.1775 20.483 28.1778 20.4827 28.1778H20.4825L16.1254 30.7917C15.9468 30.8992 15.7159 30.8412 15.6092 30.6629C15.5022 30.4848 15.5602 30.2536 15.738 30.1467L20.0954 27.5327C20.2476 27.4413 20.3553 27.2964 20.3982 27.1251C20.4453 26.9371 20.4095 26.7449 20.2978 26.5837C20.1041 26.3036 19.69 26.2291 19.3759 26.4179L12.7137 30.4146C12.5679 30.5017 12.3811 30.4805 12.2588 30.3625C12.1363 30.2442 12.1087 30.0583 12.1912 29.9097L13.5765 27.4137C13.7155 27.1642 13.7101 26.8561 13.5619 26.6092L13.562 26.6091Z" fill="#103E13"/>
<path d="M39.6183 36.6576C38.924 37.8156 37.7821 38.6081 36.4027 38.8899C35.0355 39.1686 33.5977 38.9116 32.3532 38.1655L25.6862 34.166C25.3618 33.9714 25.1323 33.6623 25.0404 33.2952C24.9493 32.9288 25.0063 32.5483 25.2006 32.2241C25.322 32.0215 25.4921 31.8618 25.6893 31.7437L25.6874 31.7426C25.363 31.548 25.1335 31.2389 25.0421 30.8723C24.9502 30.5057 25.0072 30.1249 25.2018 29.8003C25.3272 29.5918 25.4989 29.4288 25.6949 29.3131C25.4103 29.1173 25.2054 28.8329 25.121 28.4956C25.0291 28.1287 25.0862 27.7482 25.2808 27.424C25.4751 27.0996 25.7845 26.8704 26.1511 26.7787C26.2656 26.75 26.3817 26.7359 26.4967 26.7359C26.7224 26.7361 26.9439 26.7933 27.1474 26.8998C27.1599 26.6362 27.2384 26.3773 27.3924 26.1551C27.8149 25.5456 28.6611 25.3769 29.3203 25.7725L34.7799 29.0473L34.0762 27.7798C33.8062 27.2958 33.8161 26.6988 34.1023 26.2215C34.2418 25.9892 34.4411 25.7963 34.6793 25.6627C34.8751 25.5543 35.0871 25.5029 35.2963 25.5029C35.7456 25.5032 36.1819 25.7402 36.4142 26.1598C37.2237 27.6184 38.7513 30.3692 38.8587 30.5613C38.8816 30.5945 38.9506 30.6934 39.0098 30.7776C39.0661 30.8574 39.1268 30.9338 39.1898 31.0096C40.5529 32.6621 40.7174 34.8261 39.6183 36.6576L39.6183 36.6576ZM38.6093 31.4891C38.5344 31.3984 38.4609 31.3058 38.394 31.2104C38.1904 30.9215 38.1852 30.914 38.1699 30.8384C37.932 30.4447 37.3515 29.3996 35.7558 26.5248C35.6158 26.2725 35.2978 26.1803 35.0445 26.3203C34.9199 26.39 34.8197 26.4873 34.7467 26.6091C34.5987 26.8558 34.5931 27.164 34.7328 27.4142L36.1177 29.9094C36.2003 30.0583 36.1728 30.244 36.0505 30.3622C35.9285 30.4807 35.7419 30.5015 35.5953 30.4143L28.9331 26.4176C28.6191 26.2293 28.2052 26.3031 28.011 26.5834C27.8993 26.7446 27.8638 26.9368 27.9104 27.1246C27.9533 27.2961 28.061 27.4408 28.2134 27.5322C28.2139 27.5324 28.2141 27.5329 28.2146 27.5331L32.5706 30.1464C32.7487 30.2533 32.8064 30.4842 32.6994 30.6626C32.5925 30.8405 32.3618 30.8986 32.1832 30.7914L26.8354 27.5833C26.6837 27.4924 26.5051 27.4655 26.3336 27.5087C26.1616 27.5515 26.0169 27.659 25.9258 27.8114C25.8343 27.9634 25.808 28.1417 25.8504 28.3132C25.8932 28.4847 26.0009 28.6296 26.1531 28.721L27.1938 29.3452L31.5007 31.9292C31.6788 32.0362 31.7365 32.2671 31.6296 32.4454C31.5226 32.6233 31.292 32.6812 31.1134 32.5743L26.7565 29.9603C26.4431 29.7718 26.0351 29.8741 25.8466 30.1879C25.7552 30.3401 25.7288 30.5184 25.7712 30.6899C25.8141 30.8615 25.9218 31.0061 26.0742 31.0978L27.1424 31.7386L30.4311 33.7117C30.6092 33.8187 30.6669 34.0496 30.56 34.2279C30.453 34.4058 30.2223 34.4642 30.0438 34.3568L26.7551 32.3837C26.6033 32.2927 26.4255 32.2659 26.253 32.309C26.0815 32.3519 25.9364 32.4593 25.8452 32.6112C25.754 32.7634 25.7274 32.942 25.7698 33.1133C25.8127 33.2848 25.9204 33.4295 26.0728 33.5211L32.7398 37.5206C33.8217 38.1697 35.0694 38.3944 36.2516 38.1532C37.4216 37.9143 38.388 37.2459 38.9728 36.271C39.9178 34.6967 39.7818 32.909 38.6097 31.4891L38.6093 31.4891Z" fill="#103E13"/>
</svg>
