<svg width="2122" height="1472" viewBox="0 0 2122 1472" fill="none" xmlns="http://www.w3.org/2000/svg">
<g opacity="0.2">
<path opacity="0.0144928" fill-rule="evenodd" clip-rule="evenodd" d="M1906.25 960.805L1749.47 1258.73C1744.96 1267.29 1736.1 1271.44 1727.74 1268.91L1436.88 1180.92C1431.94 1179.42 1427.73 1175.74 1425.16 1170.66L1209.3 743.318C1207.28 739.327 1206.4 734.702 1206.77 730.083L1241.91 296.883C1242.59 288.508 1247.29 281.232 1254.08 278.047L1498.36 163.489C1505.15 160.305 1512.88 161.75 1518.37 167.231L1802.5 450.711C1805.53 453.734 1807.66 457.774 1808.59 462.272L1908.56 943.971C1909.75 949.691 1908.92 955.741 1906.25 960.805ZM1752.63 1260.9C1747.27 1271.1 1736.72 1276.05 1726.77 1273.04L1435.91 1185.04C1430.02 1183.26 1425.01 1178.87 1421.96 1172.83L1206.09 745.485C1203.69 740.734 1202.64 735.228 1203.09 729.729L1238.22 296.529C1239.03 286.558 1244.62 277.896 1252.71 274.105L1496.99 159.547C1505.07 155.756 1514.28 157.477 1520.82 164.002L1804.94 447.482C1808.55 451.08 1811.09 455.89 1812.2 461.245L1912.16 942.944C1913.57 949.754 1912.59 956.956 1909.41 962.985L1752.63 1260.9Z" fill="url(#paint0_linear_470_4464)"/>
<path opacity="0.0289855" fill-rule="evenodd" clip-rule="evenodd" d="M1872.65 985.189L1703.43 1271.04C1698.54 1279.3 1689.53 1282.9 1681.32 1279.9L1396.92 1175.75C1392.04 1173.97 1388 1170.03 1385.66 1164.8L1191.27 728.976C1189.43 724.856 1188.76 720.167 1189.35 715.561L1244.16 288.635C1245.23 280.32 1250.25 273.347 1257.17 270.578L1504.72 171.415C1511.63 168.646 1519.27 170.547 1524.51 176.338L1793.22 473.67C1796.12 476.877 1798.07 481.054 1798.8 485.619L1875.73 968.489C1876.66 974.285 1875.55 980.287 1872.65 985.189ZM1706.48 1273.42C1700.66 1283.24 1689.94 1287.54 1680.17 1283.96L1395.76 1179.81C1389.96 1177.69 1385.14 1173 1382.36 1166.77L1187.97 730.949C1185.78 726.044 1184.99 720.462 1185.69 714.979L1240.5 288.053C1241.77 278.154 1247.75 269.853 1255.98 266.557L1503.53 167.394C1511.76 164.097 1520.86 166.36 1527.09 173.254L1795.8 470.586C1799.25 474.405 1801.57 479.377 1802.44 484.812L1879.38 967.681C1880.48 974.581 1879.16 981.727 1875.7 987.562L1706.48 1273.42Z" fill="url(#paint1_linear_470_4464)"/>
<path opacity="0.0434783" fill-rule="evenodd" clip-rule="evenodd" d="M1838.34 1008.58L1657.36 1281.68C1652.11 1289.6 1642.98 1292.66 1634.94 1289.18L1357.65 1169.4C1352.86 1167.33 1348.99 1163.15 1346.89 1157.78L1174.13 714.873C1172.47 710.634 1172.02 705.893 1172.83 701.314L1246.82 281.84C1248.27 273.609 1253.59 266.959 1260.61 264.611L1510.71 180.938C1517.72 178.59 1525.25 180.94 1530.22 187.025L1783.05 497.153C1785.81 500.539 1787.58 504.842 1788.09 509.461L1842.2 992.062C1842.86 997.918 1841.47 1003.86 1838.34 1008.58ZM1660.29 1284.24C1654.04 1293.67 1643.18 1297.31 1633.61 1293.17L1356.32 1173.39C1350.61 1170.92 1346 1165.95 1343.51 1159.55L1170.75 716.648C1168.78 711.601 1168.24 705.958 1169.2 700.507L1243.19 281.032C1244.92 271.234 1251.26 263.317 1259.61 260.522L1509.71 176.848C1518.06 174.054 1527.02 176.851 1532.93 184.095L1785.77 494.224C1789.05 498.254 1791.15 503.377 1791.77 508.876L1845.87 991.477C1846.65 998.448 1845 1005.52 1841.28 1011.14L1660.29 1284.24Z" fill="url(#paint2_linear_470_4464)"/>
<path opacity="0.057971" fill-rule="evenodd" clip-rule="evenodd" d="M1803.38 1030.94L1611.35 1290.66C1605.75 1298.22 1596.54 1300.72 1588.68 1296.79L1319.14 1161.92C1314.44 1159.57 1310.76 1155.16 1308.9 1149.65L1157.85 701.06C1156.39 696.712 1156.15 691.933 1157.18 687.394L1249.8 276.507C1251.63 268.385 1257.25 262.074 1264.35 260.154L1516.25 192.018C1523.36 190.098 1530.76 192.889 1535.43 199.251L1771.99 521.102C1774.6 524.657 1776.17 529.076 1776.48 533.737L1808.01 1014.66C1808.4 1020.55 1806.73 1026.41 1803.38 1030.94ZM1614.16 1293.4C1607.5 1302.41 1596.53 1305.37 1587.18 1300.7L1317.64 1165.83C1312.04 1163.03 1307.65 1157.78 1305.45 1151.22L1154.4 702.632C1152.66 697.456 1152.37 691.766 1153.59 686.363L1246.22 275.476C1248.4 265.807 1255.08 258.294 1263.53 256.008L1515.44 187.873C1523.89 185.586 1532.7 188.909 1538.27 196.483L1774.83 518.333C1777.94 522.566 1779.81 527.826 1780.17 533.375L1811.7 1014.29C1812.16 1021.32 1810.18 1028.29 1806.19 1033.69L1614.16 1293.4Z" fill="url(#paint3_linear_470_4464)"/>
<path opacity="0.0724638" fill-rule="evenodd" clip-rule="evenodd" d="M1767.83 1052.25L1565.47 1297.98C1559.55 1305.18 1550.27 1307.11 1542.62 1302.73L1281.43 1153.37C1276.83 1150.74 1273.35 1146.1 1271.74 1140.49L1142.43 687.587C1141.16 683.141 1141.14 678.336 1142.38 673.851L1253.04 272.643C1255.24 264.653 1261.13 258.699 1268.29 257.21L1521.29 204.616C1528.45 203.127 1535.7 206.35 1540.08 212.972L1760 545.456C1762.46 549.173 1763.83 553.696 1763.93 558.386L1773.21 1036.24C1773.33 1042.17 1771.39 1047.92 1767.83 1052.25ZM1568.15 1300.9C1561.1 1309.46 1550.05 1311.76 1540.95 1306.55L1279.75 1157.18C1274.28 1154.05 1270.13 1148.54 1268.22 1141.85L1138.91 688.951C1137.4 683.659 1137.37 677.939 1138.85 672.599L1249.51 271.392C1252.13 261.879 1259.14 254.792 1267.67 253.018L1520.66 200.425C1529.19 198.651 1537.82 202.488 1543.04 210.372L1762.96 542.856C1765.89 547.281 1767.52 552.666 1767.63 558.25L1776.92 1036.1C1777.05 1043.16 1774.75 1050.01 1770.51 1055.16L1568.15 1300.9Z" fill="url(#paint4_linear_470_4464)"/>
<path opacity="0.0869565" fill-rule="evenodd" clip-rule="evenodd" d="M1731.74 1072.47L1519.81 1303.69C1513.58 1310.49 1504.26 1311.85 1496.84 1307.05L1244.56 1143.8C1240.08 1140.9 1236.8 1136.05 1235.45 1130.34L1127.82 674.502C1126.75 669.97 1126.96 665.152 1128.41 660.733L1256.46 270.25C1259.03 262.414 1265.17 256.834 1272.38 255.778L1525.74 218.685C1532.95 217.63 1540.03 221.275 1544.1 228.138L1747.09 570.155C1749.39 574.026 1750.56 578.643 1750.43 583.349L1737.86 1056.78C1737.71 1062.72 1735.5 1068.37 1731.74 1072.47ZM1522.35 1306.76C1514.93 1314.86 1503.83 1316.48 1495 1310.77L1242.72 1147.51C1237.39 1144.06 1233.49 1138.3 1231.88 1131.49L1124.25 675.655C1122.97 670.261 1123.22 664.525 1124.94 659.264L1253 268.781C1256.06 259.453 1263.36 252.809 1271.95 251.553L1525.31 214.46C1533.89 213.203 1542.32 217.543 1547.17 225.713L1750.16 567.73C1752.89 572.338 1754.28 577.835 1754.13 583.437L1741.57 1056.87C1741.38 1063.94 1738.75 1070.66 1734.27 1075.55L1522.35 1306.76Z" fill="url(#paint5_linear_470_4464)"/>
<path opacity="0.101449" fill-rule="evenodd" clip-rule="evenodd" d="M1695.16 1091.59L1474.44 1307.8C1467.92 1314.19 1458.58 1314.99 1451.41 1309.77L1208.58 1133.28C1204.23 1130.11 1201.17 1125.07 1200.08 1119.27L1114.02 661.853C1113.15 657.246 1113.58 652.428 1115.24 648.09L1259.99 269.325C1262.92 261.666 1269.29 256.474 1276.53 255.854L1529.54 234.177C1536.78 233.557 1543.67 237.613 1547.43 244.699L1733.24 595.142C1735.37 599.156 1736.33 603.855 1735.99 608.565L1702.01 1076.27C1701.58 1082.2 1699.12 1087.71 1695.16 1091.59ZM1476.82 1311.03C1469.06 1318.63 1457.95 1319.59 1449.41 1313.38L1206.58 1136.88C1201.4 1133.12 1197.75 1127.12 1196.46 1120.21L1110.4 662.792C1109.37 657.309 1109.88 651.573 1111.85 646.408L1256.61 267.643C1260.09 258.526 1267.68 252.344 1276.29 251.606L1529.3 229.929C1537.92 229.191 1546.12 234.019 1550.59 242.456L1736.4 592.898C1738.94 597.677 1740.08 603.271 1739.68 608.878L1705.7 1076.58C1705.19 1083.64 1702.25 1090.2 1697.54 1094.82L1476.82 1311.03Z" fill="url(#paint6_linear_470_4464)"/>
<path opacity="0.115942" fill-rule="evenodd" clip-rule="evenodd" d="M1658.15 1109.57L1429.42 1310.35C1422.64 1316.31 1413.31 1316.54 1406.4 1310.93L1173.52 1121.86C1169.31 1118.44 1166.47 1113.22 1165.65 1107.35L1100.99 649.684C1100.33 645.014 1100.98 640.21 1102.84 635.964L1263.57 269.861C1266.85 262.401 1273.44 257.61 1280.67 257.426L1532.64 251.037C1539.88 250.853 1546.56 255.307 1550 262.597L1718.44 620.353C1720.39 624.502 1721.14 629.271 1720.58 633.971L1665.71 1094.67C1665.01 1100.58 1662.29 1105.94 1658.15 1109.57ZM1431.65 1313.72C1423.57 1320.82 1412.47 1321.1 1404.25 1314.42L1171.37 1125.35C1166.35 1121.28 1162.98 1115.06 1161.99 1108.07L1097.33 650.407C1096.55 644.848 1097.32 639.129 1099.54 634.074L1260.27 267.971C1264.17 259.09 1272.01 253.386 1280.63 253.168L1532.59 246.778C1541.21 246.56 1549.17 251.862 1553.26 260.541L1721.7 618.297C1724.03 623.236 1724.92 628.913 1724.25 634.509L1669.38 1095.21C1668.55 1102.24 1665.3 1108.63 1660.38 1112.95L1431.65 1313.72Z" fill="url(#paint7_linear_470_4464)"/>
<path opacity="0.130435" fill-rule="evenodd" clip-rule="evenodd" d="M1620.77 1126.42L1384.84 1311.37C1377.8 1316.89 1368.52 1316.56 1361.89 1310.57L1139.42 1109.63C1135.36 1105.96 1132.76 1100.57 1132.19 1094.64L1088.7 638.039C1088.25 633.318 1089.12 628.541 1091.19 624.401L1267.12 271.846C1270.73 264.606 1277.52 260.229 1284.74 260.481L1534.97 269.209C1542.19 269.461 1548.65 274.3 1551.75 281.774L1702.69 645.73C1704.46 650.005 1705 654.831 1704.22 659.508L1629.02 1111.97C1628.04 1117.84 1625.07 1123.04 1620.77 1126.42ZM1386.9 1314.89C1378.53 1321.45 1367.48 1321.06 1359.58 1313.93L1137.12 1112.99C1132.28 1108.62 1129.18 1102.2 1128.51 1095.15L1085.02 638.544C1084.48 632.924 1085.52 627.237 1087.98 622.308L1263.91 269.753C1268.21 261.134 1276.29 255.924 1284.89 256.224L1535.11 264.952C1543.71 265.251 1551.41 271.013 1555.1 279.91L1706.04 643.866C1708.15 648.955 1708.78 654.7 1707.86 660.269L1632.66 1112.73C1631.5 1119.72 1627.96 1125.91 1622.83 1129.93L1386.9 1314.89Z" fill="url(#paint8_linear_470_4464)"/>
<path opacity="0.144928" fill-rule="evenodd" clip-rule="evenodd" d="M1583.07 1142.11L1340.75 1310.92C1333.5 1315.97 1324.28 1315.09 1317.94 1308.74L1106.31 1096.64C1102.41 1092.73 1100.05 1087.18 1099.76 1081.21L1077.13 626.957C1076.9 622.198 1077.99 617.461 1080.25 613.439L1270.58 275.263C1274.52 268.264 1281.48 264.312 1288.67 264.998L1536.47 288.632C1543.66 289.317 1549.88 294.527 1552.64 302.165L1685.99 671.211C1687.58 675.601 1687.9 680.472 1686.9 685.114L1591.99 1128.16C1590.75 1133.97 1587.53 1139 1583.07 1142.11ZM1342.65 1314.55C1334.01 1320.57 1323.04 1319.53 1315.49 1311.96L1103.86 1099.86C1099.22 1095.21 1096.41 1088.6 1096.06 1081.5L1073.43 627.242C1073.15 621.576 1074.45 615.938 1077.15 611.149L1267.47 272.973C1272.16 264.642 1280.45 259.937 1289.01 260.753L1536.81 284.387C1545.37 285.203 1552.78 291.405 1556.06 300.498L1689.42 669.544C1691.3 674.769 1691.68 680.568 1690.5 686.094L1595.59 1129.14C1594.1 1136.06 1590.28 1142.04 1584.96 1145.74L1342.65 1314.55Z" fill="url(#paint9_linear_470_4464)"/>
<path opacity="0.15942" fill-rule="evenodd" clip-rule="evenodd" d="M1545.11 1156.63L1297.23 1309.02C1289.77 1313.61 1280.65 1312.18 1274.62 1305.49L1074.22 1082.96C1070.5 1078.82 1068.38 1073.12 1068.36 1067.14L1066.24 616.478C1066.22 611.693 1067.54 607.01 1069.99 603.119L1273.88 280.093C1278.13 273.355 1285.25 269.838 1292.38 270.954L1537.1 309.243C1544.23 310.358 1550.2 315.924 1552.62 323.704L1668.35 696.737C1669.74 701.231 1669.84 706.135 1668.63 710.727L1554.68 1143.23C1553.16 1148.97 1549.72 1153.8 1545.11 1156.63ZM1298.95 1312.78C1290.08 1318.23 1279.21 1316.53 1272.03 1308.56L1071.64 1086.04C1067.2 1081.11 1064.68 1074.33 1064.65 1067.2L1062.54 616.543C1062.51 610.846 1064.08 605.271 1067 600.639L1270.89 277.613C1275.95 269.592 1284.43 265.405 1292.91 266.733L1537.64 305.022C1546.12 306.35 1553.23 312.975 1556.11 322.238L1671.84 695.271C1673.5 700.621 1673.62 706.458 1672.18 711.926L1558.22 1144.42C1556.42 1151.26 1552.32 1157.01 1546.83 1160.38L1298.95 1312.78Z" fill="url(#paint10_linear_470_4464)"/>
<path opacity="0.173913" fill-rule="evenodd" clip-rule="evenodd" d="M1506.94 1169.99L1254.33 1305.74C1246.7 1309.85 1237.69 1307.88 1231.98 1300.86L1043.17 1068.66C1039.63 1064.3 1037.77 1058.48 1038.01 1052.48L1056.01 606.639C1056.2 601.84 1057.73 597.224 1060.37 593.476L1276.95 286.312C1281.5 279.854 1288.76 276.781 1295.81 278.322L1536.8 330.975C1543.86 332.517 1549.56 338.421 1551.62 346.324L1649.76 722.248C1650.96 726.835 1650.84 731.759 1649.41 736.29L1517.13 1157.16C1515.35 1162.82 1511.68 1167.44 1506.94 1169.99ZM1255.88 1309.6C1246.79 1314.48 1236.06 1312.14 1229.27 1303.78L1040.46 1071.59C1036.24 1066.4 1034.02 1059.46 1034.31 1052.33L1052.31 606.483C1052.54 600.77 1054.36 595.275 1057.51 590.813L1274.08 283.648C1279.5 275.961 1288.14 272.302 1296.54 274.137L1537.53 326.79C1545.93 328.625 1552.72 335.654 1555.17 345.062L1653.31 720.987C1654.73 726.448 1654.59 732.309 1652.89 737.703L1520.61 1158.58C1518.5 1165.31 1514.13 1170.81 1508.48 1173.84L1255.88 1309.6Z" fill="url(#paint11_linear_470_4464)"/>
<path opacity="0.188406" fill-rule="evenodd" clip-rule="evenodd" d="M1468.63 1182.17L1212.12 1301.13C1204.34 1304.74 1195.46 1302.24 1190.09 1294.92L1013.18 1053.82C1009.83 1049.25 1008.23 1043.31 1008.75 1037.33L1046.38 597.475C1046.79 592.674 1048.54 588.139 1051.36 584.545L1279.73 293.892C1284.57 287.732 1291.94 285.11 1298.9 287.072L1535.54 353.761C1542.5 355.722 1547.91 361.948 1549.62 369.953L1630.24 747.686C1631.23 752.356 1630.89 757.286 1629.25 761.742L1479.41 1169.97C1477.37 1175.52 1473.49 1179.92 1468.63 1182.17ZM1213.48 1305.08C1204.21 1309.38 1193.65 1306.4 1187.25 1297.69L1010.34 1056.59C1006.35 1051.15 1004.45 1044.07 1005.06 1036.95L1042.69 597.099C1043.18 591.384 1045.26 585.985 1048.62 581.707L1276.99 291.053C1282.76 283.72 1291.53 280.599 1299.82 282.934L1536.45 349.623C1544.74 351.958 1551.19 359.37 1553.22 368.899L1633.84 746.633C1635.02 752.192 1634.61 758.061 1632.66 763.366L1482.82 1171.59C1480.39 1178.2 1475.77 1183.44 1469.98 1186.12L1213.48 1305.08Z" fill="url(#paint12_linear_470_4464)"/>
<path opacity="0.202899" fill-rule="evenodd" clip-rule="evenodd" d="M1430.22 1193.19L1170.66 1295.24C1162.74 1298.35 1154.03 1295.33 1149.01 1287.73L984.28 1038.5C981.13 1033.74 979.794 1027.69 980.576 1021.74L1037.34 589.015C1037.97 584.226 1039.92 579.784 1042.92 576.357L1282.17 302.8C1287.28 296.956 1294.75 294.791 1301.6 297.166L1533.26 377.526C1540.11 379.902 1545.23 386.431 1546.58 394.516L1609.79 772.992C1610.59 777.733 1610.02 782.657 1608.17 787.025L1441.57 1181.64C1439.28 1187.08 1435.19 1191.24 1430.22 1193.19ZM1171.83 1299.27C1162.4 1302.97 1152.03 1299.37 1146.05 1290.32L981.323 1041.1C977.573 1035.43 975.983 1028.23 976.913 1021.14L1033.67 588.42C1034.42 582.718 1036.76 577.431 1040.32 573.351L1279.57 299.794C1285.66 292.837 1294.54 290.259 1302.7 293.087L1534.37 373.447C1542.52 376.275 1548.61 384.049 1550.22 393.673L1613.43 772.149C1614.37 777.793 1613.7 783.655 1611.5 788.855L1444.9 1183.47C1442.17 1189.94 1437.3 1194.9 1431.39 1197.22L1171.83 1299.27Z" fill="url(#paint13_linear_470_4464)"/>
<path opacity="0.217391" fill-rule="evenodd" clip-rule="evenodd" d="M1391.78 1203.04L1129.99 1288.13C1121.97 1290.73 1113.44 1287.2 1108.78 1279.34L956.467 1022.79C953.526 1017.83 952.459 1011.71 953.509 1005.79L1028.83 581.291C1029.68 576.526 1031.85 572.191 1035.01 568.942L1284.2 313.002C1289.57 307.49 1297.11 305.787 1303.82 308.567L1529.94 402.2C1536.66 404.981 1541.46 411.796 1542.45 419.94L1588.44 798.109C1589.02 802.91 1588.23 807.815 1586.18 812.082L1403.66 1192.19C1401.11 1197.49 1396.83 1201.4 1391.78 1203.04ZM1130.96 1292.22C1121.41 1295.33 1111.26 1291.12 1105.71 1281.77L953.401 1025.21C949.9 1019.32 948.631 1012.02 949.88 1004.98L1025.21 580.479C1026.21 574.806 1028.79 569.645 1032.56 565.777L1281.75 309.837C1288.14 303.276 1297.11 301.248 1305.11 304.558L1531.23 398.191C1539.22 401.501 1544.94 409.614 1546.12 419.309L1592.11 797.479C1592.8 803.194 1591.86 809.033 1589.42 814.113L1406.9 1194.22C1403.87 1200.53 1398.77 1205.19 1392.75 1207.14L1130.96 1292.22Z" fill="url(#paint14_linear_470_4464)"/>
<path opacity="0.231884" fill-rule="evenodd" clip-rule="evenodd" d="M1353.35 1211.74L1090.16 1279.86C1082.06 1281.96 1073.74 1277.93 1069.44 1269.83L929.757 1006.74C927.033 1001.62 926.239 995.418 927.555 989.56L1020.83 574.329C1021.9 569.6 1024.27 565.385 1027.59 562.324L1285.78 324.459C1291.38 319.295 1298.97 318.056 1305.53 321.233L1525.54 427.706C1532.1 430.883 1536.59 437.964 1537.22 446.145L1566.19 822.982C1566.56 827.831 1565.55 832.703 1563.3 836.857L1365.73 1201.62C1362.94 1206.76 1358.48 1210.42 1353.35 1211.74ZM1090.94 1284.01C1081.29 1286.51 1071.4 1281.72 1066.28 1272.08L926.59 1008.99C923.348 1002.88 922.403 995.506 923.97 988.533L1017.25 573.301C1018.51 567.672 1021.34 562.654 1025.29 559.01L1283.48 321.145C1290.15 314.997 1299.18 313.522 1307 317.305L1527 423.778C1534.82 427.56 1540.16 435.989 1540.91 445.729L1569.88 822.565C1570.32 828.338 1569.11 834.138 1566.43 839.083L1368.87 1203.84C1365.55 1209.97 1360.23 1214.32 1354.13 1215.9L1090.94 1284.01Z" fill="url(#paint15_linear_470_4464)"/>
<path opacity="0.246377" fill-rule="evenodd" clip-rule="evenodd" d="M1314.99 1219.3L1051.22 1270.5C1043.07 1272.08 1034.98 1267.58 1031.06 1259.27L904.155 990.447C901.657 985.155 901.139 978.904 902.718 973.119L1013.3 568.153C1014.58 563.474 1017.15 559.391 1020.62 556.529L1286.83 337.129C1292.66 332.327 1300.27 331.555 1306.67 335.118L1520.02 453.968C1526.42 457.531 1530.57 464.857 1530.84 473.055L1543.06 847.556C1543.22 852.441 1541.98 857.267 1539.54 861.296L1327.84 1209.93C1324.81 1214.91 1320.18 1218.29 1314.99 1219.3ZM1051.8 1274.7C1042.1 1276.59 1032.47 1271.22 1027.8 1261.33L900.896 992.508C897.922 986.208 897.305 978.766 899.186 971.88L1009.77 566.913C1011.29 561.343 1014.35 556.482 1018.48 553.075L1284.69 333.675C1291.63 327.958 1300.69 327.039 1308.31 331.281L1521.66 450.131C1529.28 454.373 1534.22 463.095 1534.54 472.853L1546.76 847.354C1546.95 853.17 1545.48 858.916 1542.57 863.712L1330.87 1212.35C1327.27 1218.28 1321.75 1222.3 1315.57 1223.5L1051.8 1274.7Z" fill="url(#paint16_linear_470_4464)"/>
<path opacity="0.26087" fill-rule="evenodd" clip-rule="evenodd" d="M1276.75 1225.73L1013.22 1260.12C1005.04 1261.19 997.204 1256.22 993.664 1247.72L879.668 973.968C877.401 968.526 877.161 962.238 879.001 956.542L1006.19 562.785C1007.68 558.168 1010.45 554.229 1014.06 551.576L1287.32 350.966C1293.35 346.539 1300.97 346.235 1307.18 350.173L1513.37 480.905C1519.59 484.844 1523.4 492.395 1523.3 500.587L1519.08 871.777C1519.03 876.687 1517.57 881.454 1514.93 885.345L1290.03 1217.15C1286.78 1221.95 1281.99 1225.05 1276.75 1225.73ZM1013.6 1264.35C1003.86 1265.62 994.535 1259.71 990.32 1249.59L876.324 975.838C873.626 969.36 873.34 961.874 875.53 955.093L1002.72 561.336C1004.5 555.84 1007.79 551.151 1012.09 547.992L1285.35 347.382C1292.53 342.112 1301.6 341.75 1309 346.438L1515.19 477.17C1522.58 481.859 1527.12 490.849 1527.01 500.601L1522.79 871.791C1522.72 877.636 1520.99 883.312 1517.85 887.943L1292.95 1219.75C1289.07 1225.46 1283.37 1229.15 1277.13 1229.96L1013.6 1264.35Z" fill="url(#paint17_linear_470_4464)"/>
<path opacity="0.275362" fill-rule="evenodd" clip-rule="evenodd" d="M1238.68 1231.05L976.191 1248.79C968.001 1249.34 960.44 1243.93 957.289 1235.26L856.287 957.381C854.259 951.802 854.298 945.493 856.394 939.901L999.465 558.245C1001.17 553.703 1004.12 549.921 1007.87 547.486L1287.19 365.925C1293.41 361.884 1301.01 362.047 1307.02 366.348L1505.57 508.442C1511.58 512.743 1515.03 520.498 1514.58 528.663L1494.27 895.596C1494 900.518 1492.32 905.214 1489.5 908.954L1252.36 1223.29C1248.89 1227.89 1243.95 1230.7 1238.68 1231.05ZM976.372 1253.04C966.622 1253.7 957.621 1247.25 953.869 1236.93L852.868 959.056C850.454 952.415 850.5 944.904 852.995 938.247L996.066 556.591C998.093 551.184 1001.61 546.681 1006.07 543.782L1285.39 362.222C1292.79 357.412 1301.85 357.605 1309 362.726L1507.55 504.819C1514.7 509.94 1518.82 519.171 1518.28 528.892L1497.97 895.825C1497.64 901.684 1495.65 907.275 1492.29 911.728L1255.15 1226.06C1251.01 1231.54 1245.13 1234.88 1238.86 1235.3L976.372 1253.04Z" fill="url(#paint18_linear_470_4464)"/>
<path opacity="0.289855" fill-rule="evenodd" clip-rule="evenodd" d="M1200.83 1235.29L940.167 1236.57C931.998 1236.61 924.727 1230.77 921.97 1221.96L834.013 940.759C832.229 935.057 832.548 928.743 834.896 923.271L993.083 554.549C994.993 550.095 998.129 546.481 1002 544.273L1286.4 381.954C1292.79 378.311 1300.35 378.938 1306.15 383.589L1496.59 536.497C1502.38 541.148 1505.48 549.084 1504.67 557.202L1468.66 918.964C1468.17 923.885 1466.27 928.496 1463.27 932.075L1214.87 1228.37C1211.19 1232.76 1206.12 1235.26 1200.83 1235.29ZM940.147 1240.83C930.421 1240.88 921.766 1233.93 918.484 1223.44L830.526 942.236C828.403 935.448 828.783 927.931 831.577 921.417L989.764 552.695C992.039 547.392 995.772 543.09 1000.38 540.461L1284.78 378.142C1292.38 373.806 1301.39 374.552 1308.29 380.089L1498.73 532.996C1505.62 538.533 1509.31 547.981 1508.35 557.646L1472.34 919.407C1471.75 925.266 1469.5 930.755 1465.93 935.016L1217.53 1231.31C1213.14 1236.54 1207.1 1239.52 1200.81 1239.55L940.147 1240.83Z" fill="url(#paint19_linear_470_4464)"/>
<path opacity="0.304348" fill-rule="evenodd" clip-rule="evenodd" d="M1163.25 1238.46L905.183 1223.54C897.057 1223.07 890.096 1216.83 887.738 1207.9L812.836 924.172C811.302 918.361 811.901 912.059 814.495 906.721L987.002 551.711C989.117 547.357 992.427 543.922 996.408 541.95L1284.91 398.999C1291.44 395.764 1298.95 396.852 1304.51 401.838L1486.42 564.988C1491.98 569.975 1494.71 578.071 1493.55 586.121L1442.26 941.831C1441.55 946.739 1439.45 951.253 1436.27 954.659L1177.62 1232.4C1173.73 1236.58 1168.54 1238.77 1163.25 1238.46ZM904.961 1227.8C895.288 1227.24 887 1219.81 884.193 1209.17L809.291 925.446C807.464 918.528 808.178 911.026 811.266 904.671L983.773 549.661C986.292 544.477 990.231 540.389 994.971 538.04L1283.48 395.09C1291.25 391.239 1300.19 392.534 1306.81 398.47L1488.71 561.619C1495.33 567.556 1498.58 577.194 1497.2 586.777L1445.91 942.488C1445.07 948.331 1442.56 953.704 1438.79 957.759L1180.13 1235.5C1175.5 1240.47 1169.33 1243.08 1163.03 1242.71L904.961 1227.8Z" fill="url(#paint20_linear_470_4464)"/>
<path opacity="0.318841" fill-rule="evenodd" clip-rule="evenodd" d="M1125.99 1240.6L871.264 1209.78C863.208 1208.81 856.572 1202.18 854.615 1193.15L792.745 907.692C791.465 901.786 792.343 895.511 795.177 890.322L981.181 549.742C983.498 545.5 986.974 542.256 991.057 540.527L1282.68 417.007C1289.34 414.188 1296.76 415.732 1302.08 421.038L1475.05 593.836C1480.37 599.143 1482.73 607.377 1481.22 615.338L1415.12 964.153C1414.19 969.036 1411.88 973.439 1408.54 976.662L1140.63 1235.42C1136.55 1239.37 1131.26 1241.23 1125.99 1240.6ZM870.841 1214.02C861.25 1212.86 853.35 1204.97 851.021 1194.22L789.15 908.76C787.626 901.729 788.673 894.26 792.046 888.082L978.05 547.502C980.808 542.452 984.947 538.59 989.807 536.532L1281.43 413.012C1289.36 409.655 1298.2 411.493 1304.52 417.811L1477.5 590.609C1483.82 596.927 1486.63 606.728 1484.84 616.206L1418.74 965.02C1417.64 970.834 1414.88 976.076 1410.91 979.913L1143 1238.67C1138.14 1243.37 1131.84 1245.59 1125.57 1244.83L870.841 1214.02Z" fill="url(#paint21_linear_470_4464)"/>
<path opacity="0.333333" fill-rule="evenodd" clip-rule="evenodd" d="M1089.09 1241.73L838.433 1195.37C830.469 1193.89 824.175 1186.9 822.622 1177.8L773.722 891.386C772.7 885.4 773.858 879.17 776.925 874.144L975.577 548.651C978.091 544.533 981.725 541.491 985.898 540.012L1279.67 435.92C1286.43 433.523 1293.76 435.517 1298.81 441.128L1462.49 622.961C1467.54 628.572 1469.52 636.92 1467.67 644.773L1387.26 985.885C1386.12 990.731 1383.6 995.011 1380.1 998.041L1103.97 1237.46C1099.7 1241.15 1094.33 1242.7 1089.09 1241.73ZM837.81 1199.57C828.329 1197.82 820.836 1189.49 818.987 1178.66L770.088 892.246C768.871 885.12 770.249 877.703 773.9 871.72L972.553 546.227C975.545 541.324 979.871 537.703 984.839 535.942L1278.61 431.85C1286.66 428.997 1295.38 431.37 1301.39 438.05L1465.07 619.883C1471.09 626.563 1473.45 636.501 1471.25 645.849L1390.83 986.962C1389.47 992.731 1386.47 997.827 1382.32 1001.43L1106.18 1240.85C1101.1 1245.25 1094.7 1247.09 1088.47 1245.93L837.81 1199.57Z" fill="url(#paint22_linear_470_4464)"/>
<path opacity="0.347826" fill-rule="evenodd" clip-rule="evenodd" d="M1052.59 1241.89L806.709 1180.36C798.862 1178.4 792.925 1171.07 791.775 1161.92L755.752 875.324C754.991 869.272 756.425 863.102 759.718 858.254L970.149 548.444C972.854 544.462 976.638 541.631 980.891 540.41L1275.84 455.679C1282.69 453.711 1289.89 456.147 1294.67 462.046L1448.72 652.281C1453.5 658.18 1455.1 666.62 1452.91 674.344L1358.72 1006.99C1357.36 1011.79 1354.64 1015.93 1351 1018.76L1067.66 1238.53C1063.23 1241.97 1057.78 1243.18 1052.59 1241.89ZM805.888 1184.53C796.546 1182.19 789.478 1173.46 788.109 1162.57L752.086 875.974C751.181 868.769 752.887 861.424 756.808 855.652L967.239 545.842C970.459 541.101 974.964 537.732 980.026 536.278L1274.98 451.547C1283.13 449.205 1291.71 452.104 1297.39 459.126L1451.44 649.362C1457.13 656.384 1459.04 666.431 1456.43 675.627L1362.24 1008.27C1360.62 1013.98 1357.39 1018.92 1353.05 1022.28L1069.71 1242.06C1064.43 1246.15 1057.95 1247.59 1051.77 1246.05L805.888 1184.53Z" fill="url(#paint23_linear_470_4464)"/>
<path opacity="0.362319" fill-rule="evenodd" clip-rule="evenodd" d="M1016.53 1241.1L776.109 1164.86C768.402 1162.41 762.835 1154.77 762.088 1145.6L738.812 859.571C738.315 853.469 740.023 847.375 743.534 842.717L964.856 549.124C967.747 545.289 971.671 542.68 975.991 541.722L1271.17 476.224C1278.09 474.69 1285.15 477.559 1289.64 483.727L1433.75 681.718C1438.24 687.887 1439.47 696.395 1436.95 703.971L1329.53 1027.42C1327.96 1032.16 1325.05 1036.16 1321.26 1038.77L1031.76 1238.68C1027.16 1241.86 1021.66 1242.73 1016.53 1241.1ZM775.092 1168.97C765.917 1166.06 759.289 1156.95 758.401 1146.03L735.124 860.009C734.533 852.744 736.566 845.49 740.746 839.945L962.068 546.352C965.509 541.787 970.181 538.681 975.324 537.54L1270.51 472.042C1278.74 470.216 1287.14 473.631 1292.49 480.974L1436.6 678.965C1441.95 686.309 1443.4 696.437 1440.41 705.457L1332.99 1028.91C1331.12 1034.55 1327.65 1039.31 1323.15 1042.41L1033.64 1242.33C1028.17 1246.11 1021.62 1247.15 1015.51 1245.21L775.092 1168.97Z" fill="url(#paint24_linear_470_4464)"/>
<path opacity="0.376812" fill-rule="evenodd" clip-rule="evenodd" d="M980.949 1239.42L746.644 1148.92C739.098 1146.01 733.914 1138.07 733.569 1128.9L722.877 844.19C722.647 838.052 724.624 832.051 728.345 827.597L959.655 550.691C962.725 547.015 966.781 544.637 971.157 543.947L1265.64 497.493C1272.6 496.395 1279.49 499.687 1283.68 506.108L1417.6 711.192C1421.79 717.612 1422.63 726.165 1419.79 733.575L1299.73 1047.16C1297.95 1051.81 1294.85 1055.65 1290.94 1058.04L996.287 1237.94C991.547 1240.84 986 1241.37 980.949 1239.42ZM745.434 1152.96C736.451 1149.49 730.279 1140.04 729.869 1129.13L719.177 844.416C718.902 837.109 721.257 829.964 725.686 824.661L956.996 547.756C960.651 543.38 965.48 540.549 970.689 539.727L1265.17 493.273C1273.45 491.966 1281.66 495.885 1286.65 503.528L1420.57 708.613C1425.56 716.256 1426.56 726.438 1423.18 735.259L1303.12 1048.84C1301 1054.39 1297.3 1058.96 1292.65 1061.8L997.999 1241.7C992.356 1245.15 985.752 1245.78 979.739 1243.46L745.434 1152.96Z" fill="url(#paint25_linear_470_4464)"/>
<path opacity="0.391304" fill-rule="evenodd" clip-rule="evenodd" d="M945.886 1236.88L718.319 1132.64C710.957 1129.27 706.167 1121.06 706.221 1111.92L707.92 829.246C707.957 823.088 710.2 817.195 714.121 812.956L954.504 553.146C957.748 549.64 961.925 547.501 966.343 547.084L1259.21 519.424C1266.19 518.765 1272.9 522.468 1276.79 529.122L1400.26 740.626C1404.14 747.279 1404.6 755.854 1401.45 763.079L1269.36 1066.15C1267.37 1070.72 1264.09 1074.39 1260.06 1076.55L961.29 1236.35C956.417 1238.96 950.844 1239.15 945.886 1236.88ZM716.919 1136.6C708.156 1132.58 702.452 1122.81 702.518 1111.93L704.216 829.259C704.26 821.927 706.931 814.911 711.599 809.866L951.981 550.056C955.843 545.881 960.816 543.335 966.076 542.838L1258.94 515.179C1267.25 514.394 1275.24 518.803 1279.87 526.723L1403.34 738.227C1407.96 746.148 1408.5 756.357 1404.76 764.958L1272.67 1068.03C1270.3 1073.47 1266.39 1077.84 1261.59 1080.41L962.825 1240.21C957.023 1243.31 950.389 1243.54 944.486 1240.83L716.919 1136.6Z" fill="url(#paint26_linear_470_4464)"/>
<path opacity="0.405797" fill-rule="evenodd" clip-rule="evenodd" d="M911.374 1233.51L691.139 1116.08C683.983 1112.26 679.596 1103.82 680.047 1094.72L693.909 814.797C694.215 808.633 696.72 802.863 700.832 798.853L949.363 556.482C952.773 553.156 957.061 551.265 961.51 551.124L1251.86 541.953C1258.85 541.732 1265.36 545.835 1268.93 552.701L1381.75 769.942C1385.32 776.809 1385.39 785.383 1381.94 792.406L1238.46 1084.38C1236.27 1088.85 1232.81 1092.34 1228.66 1094.25L926.8 1233.94C921.806 1236.25 916.224 1236.09 911.374 1233.51ZM689.555 1119.95C681.036 1115.41 675.813 1105.35 676.349 1094.52L690.212 814.596C690.575 807.258 693.557 800.39 698.452 795.616L946.984 553.244C951.044 549.285 956.148 547.034 961.445 546.866L1251.8 537.695C1260.11 537.432 1267.86 542.316 1272.11 550.491L1384.94 767.732C1389.18 775.906 1389.27 786.114 1385.16 794.474L1241.68 1086.44C1239.07 1091.77 1234.95 1095.92 1230.02 1098.2L928.154 1237.89C922.208 1240.64 915.562 1240.45 909.789 1237.37L689.555 1119.95Z" fill="url(#paint27_linear_470_4464)"/>
<path opacity="0.42029" fill-rule="evenodd" clip-rule="evenodd" d="M877.445 1229.36L665.105 1099.32C658.175 1095.08 654.2 1086.42 655.041 1077.4L680.814 800.9C681.387 794.746 684.148 789.116 688.441 785.345L944.193 560.693C947.762 557.558 952.15 555.922 956.617 556.061L1243.59 565.015C1250.55 565.232 1256.85 569.721 1260.09 576.78L1362.1 799.068C1365.34 806.128 1365.03 814.678 1361.29 821.481L1207.07 1101.8C1204.67 1106.17 1201.05 1109.46 1196.8 1111.13L892.849 1230.75C887.747 1232.76 882.171 1232.25 877.445 1229.36ZM663.34 1103.09C655.089 1098.04 650.357 1087.73 651.358 1076.98L677.131 800.487C677.814 793.161 681.101 786.458 686.211 781.969L941.963 557.317C946.212 553.585 951.435 551.637 956.754 551.803L1243.73 560.757C1252.02 561.015 1259.51 566.359 1263.37 574.763L1365.38 797.051C1369.24 805.455 1368.87 815.635 1364.41 823.734L1210.2 1104.06C1207.34 1109.25 1203.02 1113.17 1197.97 1115.16L894.017 1234.78C887.944 1237.17 881.306 1236.57 875.68 1233.12L663.34 1103.09Z" fill="url(#paint28_linear_470_4464)"/>
<path opacity="0.434783" fill-rule="evenodd" clip-rule="evenodd" d="M844.13 1224.48L640.213 1082.45C633.528 1077.79 629.972 1068.94 631.198 1060.01L668.597 787.61C669.438 781.482 672.449 776.005 676.912 772.484L938.954 565.769C942.674 562.834 947.151 561.461 951.623 561.883L1234.37 588.545C1241.3 589.198 1247.36 594.057 1250.26 601.289L1341.33 827.928C1344.23 835.16 1343.54 843.664 1339.52 850.232L1175.24 1118.41C1172.64 1122.65 1168.85 1125.74 1164.52 1127.16L859.465 1226.82C854.27 1228.52 848.717 1227.67 844.13 1224.48ZM638.271 1086.1C630.313 1080.55 626.08 1070.02 627.54 1059.39L664.939 786.986C665.94 779.69 669.525 773.17 674.837 768.979L936.879 562.264C941.308 558.77 946.637 557.135 951.961 557.637L1234.71 584.299C1242.96 585.077 1250.17 590.861 1253.63 599.471L1344.69 826.11C1348.15 834.72 1347.33 844.844 1342.54 852.662L1178.26 1120.84C1175.16 1125.89 1170.66 1129.57 1165.5 1131.25L860.445 1230.92C854.26 1232.94 847.65 1231.93 842.188 1228.12L638.271 1086.1Z" fill="url(#paint29_linear_470_4464)"/>
<path opacity="0.449275" fill-rule="evenodd" clip-rule="evenodd" d="M811.451 1218.9L616.451 1065.52C610.031 1060.47 606.9 1051.46 608.504 1042.65L657.219 774.98C658.327 768.893 661.581 763.584 666.202 760.324L933.605 571.7C937.468 568.975 942.022 567.871 946.486 568.577L1224.2 612.48C1231.07 613.565 1236.87 618.779 1239.44 626.162L1319.45 856.454C1322.01 863.838 1320.95 872.273 1316.66 878.589L1142.99 1134.17C1140.2 1138.28 1136.26 1141.16 1131.85 1142.31L826.673 1222.21C821.4 1223.59 815.886 1222.39 811.451 1218.9ZM614.34 1069.05C606.696 1063.04 602.97 1052.31 604.879 1041.82L653.594 774.147C654.913 766.9 658.787 760.58 664.288 756.699L931.691 568.075C936.29 564.831 941.711 563.516 947.025 564.357L1224.74 608.26C1232.91 609.551 1239.82 615.758 1242.88 624.548L1322.89 854.84C1325.94 863.63 1324.68 873.672 1319.57 881.191L1145.9 1136.78C1142.58 1141.67 1137.89 1145.09 1132.64 1146.47L827.462 1226.36C821.183 1228 814.619 1226.58 809.34 1222.43L614.34 1069.05Z" fill="url(#paint30_linear_470_4464)"/>
<path opacity="0.463768" fill-rule="evenodd" clip-rule="evenodd" d="M779.435 1212.69L593.811 1048.63C587.673 1043.2 584.972 1034.06 586.946 1025.38L646.641 763.058C648.014 757.027 651.503 751.9 656.271 748.911L928.11 578.471C932.107 575.964 936.726 575.135 941.169 576.126L1213.07 636.752C1219.86 638.265 1225.39 643.816 1227.61 651.33L1296.5 884.575C1298.72 892.089 1297.28 900.432 1292.74 906.483L1110.38 1149.07C1107.4 1153.04 1103.32 1155.69 1098.85 1156.58L794.501 1216.94C789.162 1218 783.703 1216.46 779.435 1212.69ZM591.537 1052.01C584.228 1045.56 581.014 1034.67 583.364 1024.34L643.059 762.018C644.693 754.837 648.847 748.734 654.523 745.175L926.362 574.735C931.12 571.752 936.619 570.764 941.908 571.944L1213.81 632.57C1221.89 634.371 1228.48 640.98 1231.12 649.925L1300.01 883.17C1302.65 892.115 1300.94 902.048 1295.53 909.251L1113.18 1151.84C1109.63 1156.56 1104.77 1159.72 1099.44 1160.78L795.095 1221.14C788.74 1222.4 782.242 1220.56 777.16 1216.07L591.537 1052.01Z" fill="url(#paint31_linear_470_4464)"/>
<path opacity="0.478261" fill-rule="evenodd" clip-rule="evenodd" d="M748.105 1205.87L572.278 1031.83C566.438 1026.05 564.17 1016.8 566.506 1008.29L636.82 751.892C638.455 745.931 642.172 741.001 647.075 738.29L922.432 586.066C926.554 583.787 931.227 583.237 935.634 584.513L1200.98 661.3C1207.66 663.233 1212.91 669.105 1214.78 676.727L1272.51 912.226C1274.38 919.849 1272.58 928.079 1267.79 933.85L1077.46 1163.09C1074.3 1166.9 1070.09 1169.32 1065.56 1169.94L762.968 1211.07C757.58 1211.8 752.193 1209.92 748.105 1205.87ZM569.846 1035.07C562.893 1028.19 560.194 1017.18 562.975 1007.04L633.289 750.647C635.235 743.551 639.66 737.682 645.497 734.455L920.854 582.23C925.761 579.517 931.324 578.863 936.571 580.382L1201.92 657.168C1209.87 659.47 1216.12 666.46 1218.35 675.534L1276.07 911.033C1278.3 920.108 1276.16 929.906 1270.46 936.775L1080.13 1166.02C1076.36 1170.55 1071.35 1173.43 1065.96 1174.17L763.367 1215.3C756.953 1216.17 750.539 1213.93 745.673 1209.11L569.846 1035.07Z" fill="url(#paint32_linear_470_4464)"/>
<path opacity="0.492754" fill-rule="evenodd" clip-rule="evenodd" d="M717.478 1198.52L551.83 1015.21C546.304 1009.09 544.472 999.763 547.159 991.426L627.711 741.524C629.604 735.649 633.54 730.928 638.566 728.505L916.534 594.467C920.771 592.424 925.485 592.159 929.844 593.719L1187.92 686.058C1194.48 688.404 1199.43 694.577 1200.95 702.286L1247.51 939.345C1249.03 947.054 1246.88 955.149 1241.85 960.627L1044.26 1176.21C1040.93 1179.86 1036.59 1182.04 1032.02 1182.38L732.094 1204.65C726.672 1205.05 721.372 1202.83 717.478 1198.52ZM549.249 1018.29C542.67 1011.01 540.489 999.905 543.688 989.98L624.239 740.078C626.494 733.084 631.18 727.464 637.163 724.579L915.13 590.541C920.175 588.109 925.786 587.794 930.976 589.651L1189.05 681.99C1196.86 684.783 1202.76 692.131 1204.56 701.309L1251.13 938.367C1252.93 947.545 1250.37 957.182 1244.39 963.704L1046.8 1179.29C1042.82 1183.63 1037.66 1186.22 1032.22 1186.63L732.297 1208.9C725.841 1209.38 719.532 1206.73 714.896 1201.6L549.249 1018.29Z" fill="url(#paint33_linear_470_4464)"/>
<path opacity="0.507246" fill-rule="evenodd" clip-rule="evenodd" d="M687.572 1190.66L532.45 998.817C527.252 992.39 525.856 983.012 528.884 974.875L619.268 731.993C621.417 726.219 625.563 721.721 630.699 719.592L910.383 603.654C914.726 601.854 919.468 601.877 923.766 603.72L1173.9 710.962C1180.32 713.713 1184.96 720.167 1186.12 727.941L1221.55 965.868C1222.71 973.642 1220.21 981.582 1214.97 986.755L1010.84 1188.43C1007.33 1191.9 1002.88 1193.83 998.28 1193.89L701.899 1197.71C696.456 1197.78 691.26 1195.22 687.572 1190.66ZM529.726 1001.73C523.539 994.083 521.876 982.919 525.481 973.231L615.866 730.35C618.424 723.475 623.359 718.121 629.473 715.586L909.158 599.648C914.328 597.505 919.973 597.533 925.09 599.727L1175.23 706.969C1182.86 710.244 1188.39 717.927 1189.77 727.182L1225.2 965.109C1226.58 974.364 1223.6 983.816 1217.37 989.974L1013.24 1191.65C1009.06 1195.78 1003.76 1198.08 998.285 1198.15L701.904 1201.97C695.425 1202.05 689.239 1199.01 684.848 1193.58L529.726 1001.73Z" fill="url(#paint34_linear_470_4464)"/>
<path opacity="0.521739" fill-rule="evenodd" clip-rule="evenodd" d="M658.402 1182.36L514.109 982.734C509.254 976.018 508.293 966.617 511.65 958.698L611.444 723.337C613.844 717.677 618.19 713.414 623.423 711.586L903.946 613.604C908.384 612.054 913.141 612.368 917.364 614.492L1158.93 735.95C1165.18 739.095 1169.51 745.81 1170.31 753.627L1194.66 991.739C1195.46 999.556 1192.62 1007.32 1187.19 1012.18L977.234 1199.74C973.564 1203.02 969.01 1204.7 964.391 1204.47L672.395 1190.31C666.949 1190.04 661.871 1187.16 658.402 1182.36ZM511.252 985.476C505.472 977.48 504.327 966.289 508.324 956.861L608.118 721.5C610.975 714.763 616.149 709.687 622.378 707.511L902.901 609.529C908.185 607.684 913.849 608.058 918.876 610.586L1160.44 732.044C1167.89 735.788 1173.03 743.783 1173.98 753.088L1198.34 991.201C1199.3 1000.51 1195.91 1009.75 1189.44 1015.53L979.488 1203.09C975.119 1207 969.698 1208.99 964.198 1208.73L672.203 1194.56C665.719 1194.25 659.674 1190.82 655.544 1185.1L511.252 985.476Z" fill="url(#paint35_linear_470_4464)"/>
<path opacity="0.536232" fill-rule="evenodd" clip-rule="evenodd" d="M629.978 1173.66L496.781 967.021C492.28 960.038 491.751 950.642 495.426 942.959L604.189 715.588C606.834 710.058 611.37 706.041 616.686 704.52L897.189 624.293C901.712 622.999 906.472 623.608 910.607 626.009L1143.01 760.96C1149.09 764.488 1153.07 771.443 1153.51 779.28L1166.89 1016.9C1167.33 1024.74 1164.16 1032.31 1158.54 1036.84L943.491 1210.13C939.666 1213.21 935.019 1214.62 930.395 1214.11L643.595 1182.49C638.16 1181.89 633.217 1178.69 629.978 1173.66ZM493.798 969.579C488.44 961.267 487.81 950.08 492.185 940.934L600.948 713.563C604.097 706.979 609.497 702.197 615.826 700.387L896.329 620.16C901.713 618.62 907.38 619.344 912.302 622.203L1144.7 757.154C1151.94 761.354 1156.69 769.634 1157.21 778.963L1170.59 1016.59C1171.11 1025.92 1167.34 1034.93 1160.65 1040.32L945.597 1213.61C941.042 1217.28 935.511 1218.96 930.006 1218.35L643.206 1186.73C636.735 1186.02 630.851 1182.2 626.995 1176.22L493.798 969.579Z" fill="url(#paint36_linear_470_4464)"/>
<path opacity="0.550725" fill-rule="evenodd" clip-rule="evenodd" d="M602.309 1164.62L480.433 951.738C476.298 944.515 476.198 935.149 480.178 927.72L597.451 708.776C600.337 703.389 605.052 699.63 610.438 698.422L890.083 635.695C894.68 634.664 899.429 635.569 903.462 638.243L1126.16 785.932C1132.03 789.831 1135.68 797.004 1135.76 804.839L1138.28 1041.31C1138.37 1049.15 1134.88 1056.5 1129.08 1060.7L909.657 1219.6C905.683 1222.47 900.956 1223.62 896.339 1222.82L615.509 1174.31C610.1 1173.37 605.307 1169.86 602.309 1164.62ZM477.334 954.105C472.411 945.506 472.292 934.356 477.029 925.512L594.303 706.568C597.738 700.155 603.351 695.679 609.763 694.241L889.408 631.515C894.881 630.288 900.535 631.364 905.336 634.548L1128.03 782.237C1135.03 786.878 1139.37 795.417 1139.47 804.745L1141.99 1041.22C1142.08 1050.55 1137.93 1059.3 1131.03 1064.29L911.608 1223.19C906.878 1226.62 901.25 1227.98 895.754 1227.03L614.924 1178.52C608.485 1177.41 602.779 1173.22 599.209 1166.98L477.334 954.105Z" fill="url(#paint37_linear_470_4464)"/>
<path opacity="0.565217" fill-rule="evenodd" clip-rule="evenodd" d="M575.402 1155.28L465.033 936.946C461.273 929.506 461.597 920.199 465.867 913.039L591.18 702.927C594.3 697.697 599.183 694.206 604.625 693.314L882.598 647.784C887.258 647.021 891.984 648.222 895.901 651.165L1108.38 810.808C1114.05 815.063 1117.34 822.431 1117.07 830.243L1108.88 1064.91C1108.61 1072.73 1104.81 1079.85 1098.86 1083.7L875.776 1228.15C871.663 1230.81 866.865 1231.68 862.27 1230.59L588.144 1165.8C582.777 1164.54 578.149 1160.71 575.402 1155.28ZM461.827 939.114C457.35 930.257 457.736 919.176 462.82 910.653L588.133 700.541C591.846 694.315 597.659 690.159 604.138 689.097L882.111 643.567C887.659 642.659 893.284 644.088 897.948 647.592L1110.43 807.235C1117.17 812.3 1121.09 821.073 1120.77 830.372L1112.58 1065.04C1112.26 1074.34 1107.74 1082.82 1100.66 1087.4L877.569 1231.85C872.672 1235.02 866.96 1236.06 861.49 1234.77L587.364 1169.98C580.976 1168.47 575.466 1163.92 572.196 1157.45L461.827 939.114Z" fill="url(#paint38_linear_470_4464)"/>
<path opacity="0.57971" fill-rule="evenodd" clip-rule="evenodd" d="M549.263 1145.69L450.545 922.699C447.168 915.07 447.911 905.846 452.457 898.972L585.325 698.064C588.671 693.004 593.711 689.79 599.194 689.219L874.709 660.529C879.42 660.038 884.109 661.536 887.898 664.743L1089.71 835.529C1095.14 840.126 1098.07 847.667 1097.45 855.433L1078.74 1087.67C1078.11 1095.43 1074.02 1102.3 1067.93 1105.8L841.894 1235.78C837.65 1238.22 832.793 1238.81 828.232 1237.44L561.507 1157.03C556.198 1155.43 551.749 1151.31 549.263 1145.69ZM447.241 924.661C443.221 915.578 444.105 904.598 449.517 896.414L582.385 695.506C586.369 689.483 592.368 685.657 598.896 684.977L874.411 656.287C880.019 655.703 885.601 657.486 890.112 661.304L1091.92 832.09C1098.39 837.562 1101.88 846.539 1101.13 855.785L1082.42 1088.02C1081.68 1097.26 1076.81 1105.44 1069.56 1109.61L843.524 1239.59C838.471 1242.49 832.69 1243.19 827.26 1241.56L560.535 1161.15C554.215 1159.25 548.918 1154.34 545.959 1147.66L447.241 924.661Z" fill="url(#paint39_linear_470_4464)"/>
<path opacity="0.594203" fill-rule="evenodd" clip-rule="evenodd" d="M523.889 1135.92L436.928 909.052C433.941 901.258 435.095 892.144 439.902 885.569L579.829 694.204C583.395 689.327 588.579 686.401 594.09 686.153L866.387 673.9C871.138 673.686 875.776 675.48 879.424 678.944L1070.15 860.04C1075.34 864.963 1077.9 872.653 1076.93 880.352L1047.9 1109.53C1046.93 1117.23 1042.55 1123.83 1036.35 1126.97L808.052 1242.51C803.686 1244.72 798.783 1245.02 794.269 1243.36L535.597 1148.03C530.361 1146.1 526.106 1141.7 523.889 1135.92ZM433.537 910.802C429.98 901.524 431.354 890.673 437.077 882.847L577.004 691.481C581.249 685.675 587.42 682.191 593.982 681.896L866.278 669.643C871.934 669.389 877.456 671.525 881.798 675.648L1072.53 856.745C1078.7 862.605 1081.75 871.76 1080.59 880.926L1051.57 1110.1C1050.41 1119.27 1045.2 1127.13 1037.81 1130.87L809.516 1246.41C804.318 1249.04 798.481 1249.4 793.108 1247.42L534.435 1152.09C528.202 1149.79 523.136 1144.55 520.498 1137.67L433.537 910.802Z" fill="url(#paint40_linear_470_4464)"/>
<path opacity="0.608696" fill-rule="evenodd" clip-rule="evenodd" d="M499.284 1125.99L424.143 896.054C421.551 888.123 423.108 879.143 428.161 872.882L574.641 691.364C578.419 686.683 583.735 684.052 589.26 684.129L857.61 687.865C862.389 687.932 866.963 690.021 870.457 693.735L1049.74 884.289C1054.66 889.521 1056.85 897.336 1055.53 904.947L1016.43 1130.47C1015.11 1138.08 1010.47 1144.4 1004.16 1147.18L774.298 1248.34C769.818 1250.31 764.88 1250.32 760.427 1248.37L510.418 1138.86C505.27 1136.6 501.222 1131.92 499.284 1125.99ZM420.674 897.587C417.589 888.145 419.442 877.455 425.457 870.001L571.938 688.483C576.435 682.91 582.763 679.778 589.341 679.869L857.691 683.606C863.381 683.685 868.826 686.173 872.985 690.594L1052.27 881.148C1058.13 887.376 1060.74 896.68 1059.16 905.74L1020.06 1131.26C1018.49 1140.32 1012.96 1147.85 1005.45 1151.15L775.592 1252.32C770.259 1254.66 764.38 1254.68 759.079 1252.35L509.07 1142.84C502.942 1140.15 498.122 1134.59 495.815 1127.53L420.674 897.587Z" fill="url(#paint41_linear_470_4464)"/>
<path opacity="0.623188" fill-rule="evenodd" clip-rule="evenodd" d="M475.44 1115.98L412.144 883.753C409.952 875.711 411.902 866.89 417.184 860.954L569.706 689.554C573.687 685.08 579.121 682.753 584.646 683.156L848.353 702.392C853.15 702.741 857.645 705.124 860.973 709.08L1028.49 908.224C1033.13 913.747 1034.95 921.663 1033.29 929.164L984.374 1150.44C982.716 1157.95 977.819 1163.97 971.419 1166.38L740.67 1253.28C736.086 1255.01 731.126 1254.73 726.747 1252.49L485.964 1129.55C480.921 1126.97 477.092 1122.04 475.44 1115.98ZM408.609 885.063C405.999 875.489 408.32 864.988 414.608 857.922L567.131 686.522C571.87 681.196 578.34 678.425 584.916 678.905L848.624 698.141C854.334 698.557 859.686 701.394 863.647 706.103L1031.16 905.247C1036.69 911.821 1038.85 921.246 1036.88 930.176L987.963 1151.46C985.989 1160.39 980.159 1167.56 972.541 1170.43L741.791 1257.33C736.335 1259.39 730.43 1259.05 725.216 1256.39L484.434 1133.45C478.429 1130.38 473.872 1124.5 471.905 1117.29L408.609 885.063Z" fill="url(#paint42_linear_470_4464)"/>
<path opacity="0.637681" fill-rule="evenodd" clip-rule="evenodd" d="M452.353 1105.91L400.887 872.191C399.098 864.066 401.43 855.427 406.925 849.828L564.969 688.783C569.145 684.528 574.685 682.511 580.194 683.241L838.598 717.445C843.399 718.081 847.804 720.754 850.952 724.942L1006.43 931.795C1010.79 937.59 1012.22 945.583 1010.23 952.954L951.789 1169.43C949.799 1176.8 944.663 1182.52 938.192 1184.56L707.211 1257.36C702.534 1258.83 697.564 1258.25 693.272 1255.73L462.234 1120.16C457.309 1117.27 453.713 1112.09 452.353 1105.91ZM397.296 873.275C395.166 863.601 397.942 853.318 404.484 846.652L562.528 685.607C567.499 680.542 574.095 678.141 580.653 679.009L839.057 713.214C844.772 713.97 850.016 717.152 853.764 722.139L1009.24 928.992C1014.43 935.89 1016.14 945.406 1013.77 954.181L955.325 1170.66C952.956 1179.44 946.841 1186.24 939.138 1188.66L708.157 1261.46C702.589 1263.22 696.673 1262.53 691.563 1259.53L460.526 1123.96C454.662 1120.52 450.381 1114.35 448.762 1106.99L397.296 873.275Z" fill="url(#paint43_linear_470_4464)"/>
<path opacity="0.652174" fill-rule="evenodd" clip-rule="evenodd" d="M430.016 1095.85L390.326 861.41C388.94 853.227 391.643 844.794 397.333 839.542L560.377 689.055C564.738 685.03 570.371 683.33 575.85 684.385L828.325 732.991C833.118 733.913 837.418 736.873 840.376 741.286L983.6 954.956C987.653 961.004 988.708 969.049 986.394 976.27L918.731 1187.41C916.417 1194.63 911.057 1200.02 904.532 1201.69L673.963 1260.57C669.201 1261.79 664.234 1260.91 660.042 1258.12L439.221 1110.74C434.428 1107.54 431.077 1102.12 430.016 1095.85ZM386.69 862.263C385.041 852.522 388.258 842.483 395.032 836.23L558.077 685.743C563.268 680.951 569.973 678.927 576.497 680.183L828.972 728.789C834.677 729.888 839.796 733.411 843.317 738.664L986.541 952.335C991.367 959.534 992.622 969.112 989.868 977.708L922.205 1188.85C919.45 1197.45 913.069 1203.86 905.301 1205.85L674.732 1264.73C669.064 1266.18 663.15 1265.14 658.16 1261.81L437.338 1114.42C431.633 1110.62 427.644 1104.16 426.38 1096.7L386.69 862.263Z" fill="url(#paint44_linear_470_4464)"/>
<path opacity="0.666667" fill-rule="evenodd" clip-rule="evenodd" d="M408.418 1085.83L380.413 851.443C379.431 843.231 382.491 835.025 388.36 830.129L555.878 690.368C560.414 686.584 566.126 685.206 571.561 686.585L817.519 748.991C822.292 750.202 826.474 753.445 829.229 758.07L960.023 977.663C963.763 983.942 964.436 992.014 961.806 999.066L885.259 1204.35C882.629 1211.4 877.062 1216.46 870.499 1217.75L640.966 1262.96C636.13 1263.91 631.178 1262.73 627.1 1259.66L416.916 1101.31C412.272 1097.82 409.177 1092.18 408.418 1085.83ZM376.743 852.063C375.575 842.288 379.218 832.519 386.205 826.69L553.723 686.929C559.123 682.424 565.922 680.783 572.393 682.425L818.351 744.831C824.033 746.273 829.011 750.133 832.291 755.64L963.085 975.232C967.538 982.707 968.338 992.317 965.208 1000.71L888.661 1206C885.53 1214.39 878.903 1220.41 871.09 1221.95L641.556 1267.16C635.8 1268.29 629.905 1266.89 625.049 1263.23L414.866 1104.88C409.336 1100.72 405.652 1094 404.749 1086.45L376.743 852.063Z" fill="url(#paint45_linear_470_4464)"/>
<path opacity="0.681159" fill-rule="evenodd" clip-rule="evenodd" d="M387.547 1075.9L371.097 842.326C370.518 834.112 373.922 826.154 379.951 821.621L551.417 692.722C556.117 689.188 561.894 688.137 567.271 689.838L806.163 765.411C810.903 766.911 814.954 770.431 817.496 775.259L935.734 999.873C939.151 1006.36 939.441 1014.44 936.506 1021.3L851.428 1220.24C848.493 1227.11 842.735 1231.81 836.151 1232.73L608.256 1264.53C603.357 1265.22 598.434 1263.74 594.481 1260.39L395.31 1091.94C390.826 1088.15 387.998 1082.31 387.547 1075.9ZM367.405 842.711C366.716 832.932 370.768 823.459 377.946 818.063L549.411 689.163C555.008 684.956 561.884 683.706 568.286 685.731L807.177 761.303C812.821 763.089 817.643 767.279 820.669 773.027L938.908 997.641C942.975 1005.37 943.321 1014.98 939.827 1023.15L854.748 1222.09C851.254 1230.27 844.4 1235.87 836.562 1236.96L608.667 1268.76C602.835 1269.58 596.973 1267.81 592.268 1263.84L393.096 1095.38C387.759 1090.87 384.393 1083.91 383.856 1076.29L367.405 842.711Z" fill="url(#paint46_linear_470_4464)"/>
<path opacity="0.695652" fill-rule="evenodd" clip-rule="evenodd" d="M367.387 1066.12L362.326 834.087C362.147 825.898 365.879 818.208 372.052 814.045L546.938 696.109C551.794 692.834 557.621 692.115 562.925 694.135L794.242 782.213C798.938 784.001 802.844 787.793 805.162 792.812L910.767 1021.55C913.85 1028.23 913.761 1036.28 910.531 1042.94L817.295 1235.07C814.064 1241.73 808.134 1246.08 801.545 1246.63L575.87 1265.32C570.918 1265.73 566.036 1263.95 562.222 1260.34L374.386 1082.66C370.078 1078.59 367.527 1072.56 367.387 1066.12ZM358.623 834.236C358.411 824.486 362.853 815.331 370.202 810.376L545.088 692.44C550.868 688.542 557.805 687.685 564.12 690.09L795.437 778.168C801.027 780.297 805.678 784.81 808.437 790.785L914.042 1019.52C917.712 1027.47 917.607 1037.06 913.761 1044.99L820.525 1237.12C816.679 1245.05 809.619 1250.23 801.775 1250.88L576.1 1269.57C570.205 1270.06 564.392 1267.94 559.853 1263.64L372.017 1085.96C366.888 1081.11 363.851 1073.93 363.684 1066.26L358.623 834.236Z" fill="url(#paint47_linear_470_4464)"/>
<path opacity="0.710145" fill-rule="evenodd" clip-rule="evenodd" d="M347.924 1056.51L354.052 826.751C354.269 818.613 358.313 811.209 364.611 807.422L542.395 700.518C547.393 697.512 553.257 697.127 558.475 699.462L781.749 799.358C786.388 801.434 790.137 805.491 792.219 810.688L885.161 1042.65C887.903 1049.5 887.437 1057.51 883.923 1063.94L782.921 1248.83C779.407 1255.26 773.32 1259.25 766.744 1259.42L543.845 1265.35C538.851 1265.48 534.023 1263.4 530.361 1259.53L354.135 1073.52C350.016 1069.17 347.751 1062.97 347.924 1056.51ZM350.35 826.662C350.608 816.974 355.423 808.16 362.92 803.652L540.704 696.747C546.655 693.169 553.635 692.711 559.847 695.49L783.121 795.387C788.644 797.858 793.107 802.687 795.586 808.874L888.527 1040.84C891.792 1048.99 891.237 1058.52 887.054 1066.18L786.052 1251.07C781.868 1258.73 774.622 1263.47 766.793 1263.68L543.894 1269.61C537.949 1269.77 532.201 1267.29 527.843 1262.69L351.616 1076.67C346.713 1071.49 344.016 1064.11 344.222 1056.42L350.35 826.662Z" fill="url(#paint48_linear_470_4464)"/>
<path opacity="0.724638" fill-rule="evenodd" clip-rule="evenodd" d="M329.137 1047.12L346.22 820.34C346.827 812.279 351.167 805.179 357.572 801.772L537.733 705.936C542.863 703.206 548.749 703.158 553.867 705.803L768.672 816.809C773.241 819.171 776.82 823.485 778.658 828.847L858.951 1063.16C861.346 1070.14 860.507 1078.08 856.721 1084.27L748.361 1261.51C744.575 1267.7 738.351 1271.31 731.803 1271.12L512.213 1264.65C507.188 1264.5 502.427 1262.12 498.93 1258L334.538 1064.54C330.621 1059.93 328.651 1053.57 329.137 1047.12ZM342.53 820.014C343.253 810.417 348.42 801.965 356.044 797.91L536.205 702.073C542.313 698.824 549.32 698.766 555.413 701.915L770.217 812.921C775.657 815.732 779.918 820.868 782.105 827.252L862.399 1061.56C865.249 1069.88 864.251 1079.33 859.744 1086.7L751.384 1263.93C746.877 1271.31 739.467 1275.61 731.672 1275.38L512.082 1268.9C506.1 1268.73 500.432 1265.89 496.269 1260.99L331.876 1067.53C327.213 1062.04 324.868 1054.48 325.447 1046.79L342.53 820.014Z" fill="url(#paint49_linear_470_4464)"/>
<path opacity="0.73913" fill-rule="evenodd" clip-rule="evenodd" d="M311.007 1037.99L338.776 814.872C339.766 806.913 344.386 800.135 350.878 797.111L532.902 712.346C538.153 709.901 544.046 710.191 549.05 713.141L755.002 834.528C759.49 837.173 762.886 841.737 764.47 847.25L832.177 1083.02C834.218 1090.13 833.013 1097.97 828.968 1103.91L713.673 1273.11C709.628 1279.04 703.284 1282.28 696.78 1281.72L481.006 1263.24C475.961 1262.81 471.281 1260.13 467.96 1255.77L315.576 1055.77C311.873 1050.91 310.206 1044.42 311.007 1037.99ZM335.11 814.309C336.289 804.835 341.788 796.765 349.517 793.165L531.541 708.4C537.792 705.49 544.808 705.835 550.765 709.346L756.717 830.733C762.059 833.882 766.103 839.316 767.988 845.879L835.695 1081.65C838.125 1090.11 836.69 1099.45 831.874 1106.52L716.58 1275.72C711.765 1282.78 704.212 1286.63 696.469 1285.97L480.695 1267.49C474.689 1266.98 469.117 1263.79 465.164 1258.6L312.78 1058.6C308.372 1052.81 306.387 1045.09 307.341 1037.42L335.11 814.309Z" fill="url(#paint50_linear_470_4464)"/>
<path opacity="0.753623" fill-rule="evenodd" clip-rule="evenodd" d="M293.512 1029.15L331.668 810.36C333.034 802.53 337.913 796.087 344.476 793.449L527.855 719.729C533.214 717.575 539.1 718.203 543.977 721.451L740.736 852.476C745.13 855.401 748.331 860.207 749.651 865.856L804.88 1102.23C806.562 1109.43 804.996 1117.16 800.706 1122.82L678.914 1283.63C674.624 1289.3 668.178 1292.15 661.735 1291.24L450.255 1261.18C445.201 1260.46 440.614 1257.48 437.482 1252.89L297.231 1047.25C293.755 1042.15 292.397 1035.55 293.512 1029.15ZM328.037 809.562C329.663 800.24 335.472 792.57 343.285 789.429L526.663 715.709C533.043 713.145 540.05 713.893 545.856 717.76L742.615 848.784C747.846 852.267 751.657 857.988 753.229 864.713L808.457 1101.09C810.46 1109.66 808.596 1118.86 803.489 1125.6L681.697 1286.41C676.59 1293.16 668.915 1296.55 661.245 1295.46L449.765 1265.4C443.749 1264.55 438.288 1261.01 434.559 1255.54L294.309 1049.9C290.17 1043.83 288.554 1035.97 289.881 1028.35L328.037 809.562Z" fill="url(#paint51_linear_470_4464)"/>
<path opacity="0.768116" fill-rule="evenodd" clip-rule="evenodd" d="M276.63 1020.65L324.844 806.815C326.575 799.138 331.696 793.044 338.311 790.792L522.544 728.06C527.999 726.202 533.864 727.17 538.601 730.709L725.869 870.613C730.157 873.816 733.152 878.853 734.2 884.623L777.1 1120.75C778.421 1128.02 776.502 1135.61 771.981 1140.99L644.141 1293.09C639.62 1298.47 633.09 1300.94 626.723 1299.67L419.989 1258.47C414.937 1257.47 410.456 1254.2 407.524 1249.38L279.483 1039.01C276.244 1033.69 275.202 1026.98 276.63 1020.65ZM321.259 805.784C323.32 796.644 329.417 789.39 337.292 786.708L521.525 723.976C528.019 721.765 535.001 722.917 540.64 727.13L727.908 867.034C733.013 870.847 736.578 876.843 737.826 883.713L780.725 1119.84C782.298 1128.5 780.014 1137.53 774.632 1143.93L646.792 1296.04C641.41 1302.44 633.636 1305.38 626.056 1303.87L419.322 1262.67C413.308 1261.47 407.973 1257.58 404.483 1251.85L276.442 1041.48C272.586 1035.14 271.346 1027.16 273.045 1019.62L321.259 805.784Z" fill="url(#paint52_linear_470_4464)"/>
<path opacity="0.782609" fill-rule="evenodd" clip-rule="evenodd" d="M260.334 1012.52L318.248 804.243C320.334 796.742 325.678 791.01 332.326 789.143L516.924 737.312C522.462 735.757 528.291 737.063 532.875 740.885L710.4 888.902C714.569 892.378 717.346 897.636 718.115 903.511L748.878 1138.56C749.836 1145.88 747.573 1153.31 742.837 1158.39L609.408 1301.49C604.672 1306.57 598.076 1308.65 591.8 1307.03L390.233 1255.18C385.194 1253.88 380.832 1250.33 378.113 1245.29L262.308 1031.08C259.318 1025.55 258.596 1018.76 260.334 1012.52ZM314.721 802.982C317.204 794.052 323.566 787.228 331.481 785.006L516.079 733.175C522.672 731.324 529.611 732.878 535.068 737.428L712.593 885.445C717.557 889.583 720.862 895.843 721.777 902.837L752.541 1137.89C753.681 1146.6 750.988 1155.44 745.348 1161.49L611.92 1304.6C606.281 1310.64 598.43 1313.11 590.958 1311.19L389.39 1259.34C383.392 1257.79 378.2 1253.56 374.962 1247.57L259.157 1033.35C255.598 1026.77 254.739 1018.69 256.807 1011.25L314.721 802.982Z" fill="url(#paint53_linear_470_4464)"/>
<path opacity="0.797101" fill-rule="evenodd" clip-rule="evenodd" d="M244.6 1004.78L311.829 802.647C314.258 795.345 319.805 789.986 326.469 788.504L510.952 747.458C516.561 746.21 522.339 747.852 526.758 751.948L694.329 907.305C698.368 911.05 700.915 916.517 701.397 922.481L720.259 1155.65C720.853 1162.99 718.256 1170.23 713.319 1175L574.771 1308.85C569.834 1313.62 563.192 1315.3 557.021 1313.35L361.013 1251.32C355.999 1249.74 351.769 1245.9 349.272 1240.66L245.684 1023.49C242.953 1017.77 242.556 1010.92 244.6 1004.78ZM308.372 801.16C311.263 792.467 317.866 786.087 325.8 784.322L510.283 743.276C516.96 741.791 523.839 743.745 529.099 748.622L696.671 903.978C701.479 908.436 704.511 914.946 705.085 922.046L723.947 1155.21C724.654 1163.95 721.562 1172.57 715.685 1178.25L577.137 1312.1C571.26 1317.78 563.353 1319.78 556.006 1317.46L359.998 1255.43C354.029 1253.54 348.994 1248.97 346.021 1242.74L242.433 1025.57C239.181 1018.75 238.709 1010.61 241.143 1003.29L308.372 801.16Z" fill="url(#paint54_linear_470_4464)"/>
<path opacity="0.811594" fill-rule="evenodd" clip-rule="evenodd" d="M229.399 997.468L305.534 802.027C308.292 794.945 314.021 789.969 320.684 788.868L504.583 758.465C510.25 757.528 515.964 759.503 520.205 763.865L677.656 925.784C681.554 929.792 683.859 935.458 684.049 941.494L691.282 1172C691.512 1179.34 688.593 1186.37 683.471 1190.82L540.281 1315.18C535.159 1319.63 528.489 1320.93 522.437 1318.64L332.349 1246.95C327.372 1245.08 323.287 1240.95 321.024 1235.53L229.584 1016.28C227.121 1010.37 227.053 1003.49 229.399 997.468ZM302.156 800.317C305.44 791.887 312.26 785.963 320.192 784.652L504.091 754.249C510.838 753.134 517.64 755.485 522.689 760.677L680.14 922.596C684.78 927.367 687.524 934.113 687.75 941.299L694.984 1171.8C695.258 1180.54 691.782 1188.91 685.685 1194.21L542.494 1318.57C536.397 1323.87 528.457 1325.41 521.252 1322.69L331.164 1251C325.239 1248.77 320.375 1243.86 317.681 1237.4L226.241 1018.15C223.309 1011.12 223.229 1002.93 226.022 995.759L302.156 800.317Z" fill="url(#paint55_linear_470_4464)"/>
<path opacity="0.826087" fill-rule="evenodd" clip-rule="evenodd" d="M214.704 990.613L299.31 802.376C302.384 795.537 308.275 790.952 314.919 790.228L497.78 770.299C503.491 769.676 509.126 771.981 513.178 776.598L660.387 944.302C664.13 948.566 666.184 954.419 666.075 960.509L661.992 1187.59C661.86 1194.91 658.63 1201.72 653.341 1205.83L505.99 1320.51C500.7 1324.63 494.021 1325.53 488.102 1322.93L304.264 1242.1C299.334 1239.93 295.406 1235.54 293.387 1229.93L213.983 1009.46C211.798 1003.39 212.061 996.493 214.704 990.613ZM296.023 800.449C299.682 792.308 306.696 786.849 314.605 785.987L497.466 766.058C504.266 765.317 510.974 768.061 515.798 773.557L663.006 941.261C667.463 946.338 669.908 953.306 669.778 960.555L665.695 1187.64C665.538 1196.34 661.692 1204.45 655.396 1209.35L508.045 1324.03C501.748 1328.93 493.796 1330.01 486.75 1326.91L302.912 1246.08C297.043 1243.5 292.367 1238.27 289.963 1231.6L210.56 1011.12C207.957 1003.89 208.271 995.686 211.417 988.686L296.023 800.449Z" fill="url(#paint56_linear_470_4464)"/>
<path opacity="0.84058" fill-rule="evenodd" clip-rule="evenodd" d="M200.482 984.238L293.105 803.687C296.479 797.11 302.511 792.923 309.119 792.571L490.502 782.921C496.245 782.616 501.787 785.246 505.639 790.107L642.524 962.821C646.102 967.336 647.894 973.363 647.481 979.488L632.429 1202.43C631.939 1209.69 628.411 1216.26 622.971 1220.03L471.946 1324.87C466.506 1328.64 459.835 1329.16 454.062 1326.24L276.774 1236.81C271.903 1234.36 268.144 1229.7 266.379 1223.92L198.854 1003.06C196.953 996.846 197.55 989.955 200.482 984.238ZM289.92 801.55C293.937 793.72 301.118 788.735 308.984 788.316L490.367 778.666C497.204 778.302 503.801 781.434 508.388 787.221L645.272 959.935C649.532 965.31 651.666 972.484 651.174 979.776L636.122 1202.72C635.538 1211.36 631.338 1219.18 624.862 1223.67L473.837 1328.51C467.361 1333 459.419 1333.61 452.546 1330.15L275.258 1240.72C269.46 1237.79 264.985 1232.24 262.884 1225.37L195.359 1004.51C193.096 997.11 193.806 988.906 197.297 982.1L289.92 801.55Z" fill="url(#paint57_linear_470_4464)"/>
<path opacity="0.855072" fill-rule="evenodd" clip-rule="evenodd" d="M186.707 978.365L286.872 805.949C290.53 799.652 296.682 795.868 303.237 795.883L482.716 796.293C488.477 796.306 493.912 799.258 497.555 804.352L624.076 981.306C627.478 986.064 628.999 992.251 628.277 998.393L602.639 1216.5C601.795 1223.68 597.983 1229.99 592.409 1233.41L438.2 1328.27C432.627 1331.69 425.982 1331.82 420.367 1328.61L249.896 1231.13C245.096 1228.39 241.519 1223.46 240.017 1217.54L184.17 997.111C182.562 990.766 183.492 983.9 186.707 978.365ZM283.798 803.607C288.153 796.111 295.477 791.606 303.28 791.624L482.759 792.034C489.619 792.049 496.089 795.563 500.425 801.627L626.946 978.582C630.996 984.246 632.807 991.611 631.948 998.923L606.309 1217.03C605.304 1225.58 600.766 1233.08 594.131 1237.17L439.922 1332.02C433.287 1336.1 425.376 1336.25 418.692 1332.43L248.221 1234.95C242.506 1231.68 238.248 1225.82 236.46 1218.77L180.613 998.34C178.7 990.786 179.806 982.612 183.634 976.022L283.798 803.607Z" fill="url(#paint58_linear_470_4464)"/>
<path opacity="0.869565" fill-rule="evenodd" clip-rule="evenodd" d="M173.346 973.016L280.56 809.146C284.484 803.148 290.736 799.771 297.221 800.145L474.387 810.374C480.154 810.707 485.469 813.974 488.89 819.289L605.052 999.723C608.267 1004.72 609.507 1011.05 608.473 1017.19L572.662 1229.8C571.469 1236.88 567.389 1242.91 561.699 1245.98L404.797 1330.75C399.108 1333.82 392.507 1333.57 387.063 1330.07L223.644 1225.1C218.925 1222.07 215.542 1216.89 214.313 1210.82L169.902 991.626C168.594 985.169 169.856 978.35 173.346 973.016ZM277.608 806.607C282.28 799.466 289.722 795.445 297.443 795.891L474.609 806.12C481.475 806.516 487.801 810.405 491.875 816.732L608.036 997.166C611.863 1003.11 613.34 1010.65 612.109 1017.96L576.298 1230.57C574.878 1239 570.02 1246.17 563.247 1249.83L406.345 1334.6C399.572 1338.26 391.714 1337.96 385.232 1333.8L221.814 1228.82C216.196 1225.21 212.168 1219.05 210.705 1211.83L166.295 992.631C164.737 984.944 166.24 976.826 170.394 970.476L277.608 806.607Z" fill="url(#paint59_linear_470_4464)"/>
<path opacity="0.884058" fill-rule="evenodd" clip-rule="evenodd" d="M160.366 968.209L274.121 813.261C278.294 807.577 284.623 804.609 291.023 805.335L465.485 825.12C471.244 825.773 476.425 829.348 479.617 834.871L585.461 1018.04C588.478 1023.26 589.428 1029.72 588.079 1035.84L542.541 1242.33C541.006 1249.29 536.672 1255.02 530.886 1257.73L371.78 1332.35C365.994 1335.06 359.454 1334.43 354.191 1330.66L198.029 1218.75C193.402 1215.44 190.225 1210.02 189.277 1203.83L156.021 986.624C155.018 980.075 156.611 973.323 160.366 968.209ZM271.301 810.532C276.269 803.765 283.803 800.232 291.422 801.096L465.885 820.881C472.74 821.658 478.908 825.914 482.707 832.49L588.552 1015.65C592.143 1021.87 593.275 1029.56 591.669 1036.85L546.13 1243.34C544.303 1251.63 539.144 1258.44 532.255 1261.67L373.15 1336.29C366.261 1339.52 358.475 1338.77 352.21 1334.28L196.048 1222.38C190.54 1218.43 186.757 1211.98 185.629 1204.61L152.373 987.403C151.18 979.606 153.076 971.568 157.546 965.479L271.301 810.532Z" fill="url(#paint60_linear_470_4464)"/>
<path opacity="0.898551" fill-rule="evenodd" clip-rule="evenodd" d="M147.737 963.959L267.511 818.271C271.913 812.916 278.298 810.359 284.598 811.427L455.982 840.485C461.719 841.458 466.753 845.334 469.706 851.052L565.315 1036.21C568.123 1041.65 568.776 1048.23 567.109 1054.3L512.316 1254.1C510.447 1260.91 505.878 1266.33 500.011 1268.68L339.192 1333.1C333.326 1335.45 326.864 1334.45 321.793 1330.42L173.06 1212.15C168.537 1208.55 165.577 1202.9 164.918 1196.6L142.498 982.122C141.806 975.498 143.727 968.836 147.737 963.959ZM264.831 815.361C270.072 808.986 277.674 805.941 285.173 807.213L456.557 836.271C463.387 837.429 469.38 842.043 472.895 848.851L568.504 1034.01C571.847 1040.48 572.624 1048.32 570.641 1055.55L515.847 1255.35C513.623 1263.46 508.183 1269.9 501.199 1272.7L340.38 1337.12C333.396 1339.91 325.703 1338.73 319.667 1333.93L170.933 1215.66C165.549 1211.38 162.025 1204.65 161.241 1197.15L138.821 982.671C137.996 974.786 140.284 966.855 145.058 961.048L264.831 815.361Z" fill="url(#paint61_linear_470_4464)"/>
<path opacity="0.913043" fill-rule="evenodd" clip-rule="evenodd" d="M135.425 960.28L260.684 824.153C265.296 819.14 271.717 816.992 277.901 818.393L445.851 856.423C451.554 857.714 456.428 861.883 459.134 867.783L544.627 1054.22C547.217 1059.86 547.564 1066.54 545.579 1072.56L482.028 1265.11C479.836 1271.75 475.048 1276.84 469.12 1278.82L307.072 1333.04C301.145 1335.02 294.778 1333.67 289.908 1329.39L148.745 1205.32C144.336 1201.45 141.605 1195.57 141.243 1189.17L129.303 978.133C128.925 971.454 131.172 964.903 135.425 960.28ZM258.154 821.071C263.645 815.103 271.288 812.546 278.651 814.213L446.601 852.243C453.39 853.781 459.193 858.743 462.413 865.767L547.907 1052.2C550.99 1058.92 551.403 1066.87 549.04 1074.03L485.489 1266.59C482.879 1274.49 477.179 1280.55 470.122 1282.91L308.075 1337.13C301.018 1339.49 293.438 1337.87 287.641 1332.78L146.478 1208.72C141.23 1204.1 137.977 1197.1 137.547 1189.49L125.607 978.451C125.157 970.5 127.832 962.701 132.895 957.198L258.154 821.071Z" fill="url(#paint62_linear_470_4464)"/>
<path opacity="0.927536" fill-rule="evenodd" clip-rule="evenodd" d="M123.398 957.185L253.597 830.88C258.399 826.221 264.834 824.48 270.89 826.202L435.069 872.885C440.724 874.493 445.426 878.946 447.877 885.013L523.412 1072.02C525.773 1077.87 525.807 1084.63 523.503 1090.56L451.717 1275.37C449.211 1281.82 444.222 1286.56 438.251 1288.18L275.457 1332.21C269.486 1333.83 263.23 1332.12 258.571 1327.61L125.087 1198.32C120.804 1194.17 118.312 1188.08 118.254 1181.61L116.406 974.669C116.346 967.955 118.913 961.536 123.398 957.185ZM251.225 827.635C256.942 822.089 264.603 820.017 271.812 822.067L435.991 868.75C442.723 870.664 448.321 875.965 451.239 883.188L526.773 1070.2C529.585 1077.16 529.625 1085.21 526.882 1092.27L455.096 1277.07C452.113 1284.75 446.174 1290.4 439.066 1292.32L276.271 1336.36C269.163 1338.28 261.715 1336.25 256.169 1330.88L122.685 1201.59C117.586 1196.65 114.619 1189.4 114.551 1181.69L112.702 974.754C112.631 966.761 115.687 959.12 121.026 953.94L251.225 827.635Z" fill="url(#paint63_linear_470_4464)"/>
<path opacity="0.942029" fill-rule="evenodd" clip-rule="evenodd" d="M111.623 954.68L246.211 838.419C251.183 834.125 257.611 832.789 263.524 834.82L423.616 889.822C429.211 891.744 433.73 896.471 435.918 902.691L501.686 1089.6C503.81 1095.63 503.523 1102.46 500.901 1108.28L421.422 1284.88C418.614 1291.12 413.444 1295.52 407.448 1296.76L244.382 1330.66C238.386 1331.91 232.257 1329.86 227.816 1325.13L102.092 1191.19C97.9444 1186.77 95.7025 1180.47 95.9552 1173.94L103.778 971.738C104.038 965.009 106.92 958.743 111.623 954.68ZM244.006 835.023C249.924 829.91 257.577 828.319 264.616 830.738L424.708 885.739C431.368 888.027 436.748 893.655 439.354 901.06L505.121 1087.96C507.649 1095.15 507.308 1103.28 504.187 1110.21L424.707 1286.81C421.366 1294.24 415.21 1299.47 408.072 1300.95L245.006 1334.85C237.869 1336.34 230.571 1333.9 225.285 1328.27L99.5603 1194.33C94.6232 1189.07 91.9543 1181.57 92.255 1173.79L100.078 971.59C100.388 963.579 103.818 956.12 109.417 951.283L244.006 835.023Z" fill="url(#paint64_linear_470_4464)"/>
<path opacity="0.956522" fill-rule="evenodd" clip-rule="evenodd" d="M100.066 952.774L238.486 846.741C243.605 842.82 250.007 841.883 255.765 844.212L411.474 907.183C416.995 909.415 421.318 914.407 423.239 920.765L479.465 1106.91C481.342 1113.12 480.729 1120 477.79 1125.7L391.178 1293.68C388.082 1299.68 382.749 1303.71 376.747 1304.59L213.877 1328.44C207.875 1329.32 201.886 1326.94 197.672 1322.01L79.7556 1183.97C75.7548 1179.29 73.7738 1172.79 74.3427 1166.22L91.3864 969.349C91.9685 962.625 95.1585 956.533 100.066 952.774ZM236.454 843.203C242.548 838.535 250.169 837.419 257.024 840.192L412.733 903.163C419.305 905.821 424.453 911.763 426.739 919.332L482.965 1105.48C485.199 1112.88 485.388 1120.92 481.89 1127.7L395.278 1295.68C391.592 1302.83 384.325 1307.77 377.179 1308.82L214.309 1332.66C207.164 1333.71 200.034 1330.88 195.017 1325.01L77.1011 1186.97C72.3382 1181.4 69.9799 1173.67 70.6572 1165.84L87.7009 968.968C88.3939 960.963 92.1914 953.712 98.034 949.236L236.454 843.203Z" fill="url(#paint65_linear_470_4464)"/>
<path opacity="0.971014" fill-rule="evenodd" clip-rule="evenodd" d="M88.6952 951.47L230.386 855.81C235.631 852.269 241.986 851.724 247.578 854.337L398.627 924.916C404.062 927.455 408.179 932.7 409.826 939.18L456.768 1123.94C458.389 1130.32 457.444 1137.23 454.19 1142.78L361.023 1301.76C357.653 1307.51 352.177 1311.17 346.187 1311.69L183.972 1325.58C177.982 1326.1 172.148 1323.4 168.166 1318.28L58.0785 1176.72C54.2343 1171.77 52.5244 1165.09 53.4149 1158.5L79.2027 967.507C80.1072 960.808 83.5976 954.911 88.6952 951.47ZM228.534 852.142C234.778 847.926 242.344 847.278 249 850.388L400.05 920.967C406.52 923.99 411.422 930.234 413.382 937.949L460.323 1122.71C462.253 1130.3 461.128 1138.53 457.255 1145.14L364.088 1304.12C360.076 1310.96 353.558 1315.32 346.426 1315.93L184.211 1329.83C177.08 1330.44 170.135 1327.24 165.395 1321.14L55.307 1179.57C50.7306 1173.69 48.695 1165.74 49.7551 1157.88L75.543 966.894C76.6197 958.919 80.7749 951.899 86.8435 947.802L228.534 852.142Z" fill="url(#paint66_linear_470_4464)"/>
<path opacity="0.985507" fill-rule="evenodd" clip-rule="evenodd" d="M77.4784 950.77L221.878 865.588C227.226 862.433 233.516 862.274 238.929 865.156L385.065 942.97C390.4 945.811 394.301 951.298 395.669 957.885L433.614 1140.66C434.971 1147.19 433.689 1154.11 430.124 1159.49L330.992 1309.15C327.363 1314.63 321.765 1317.92 315.805 1318.07L154.693 1322.15C148.733 1322.3 143.068 1319.3 139.324 1314.01L37.0568 1169.46C33.3793 1164.26 31.9505 1157.41 33.1672 1150.81L67.1979 966.215C68.4244 959.562 72.2064 953.88 77.4784 950.77ZM220.213 861.802C226.58 858.046 234.068 857.856 240.512 861.287L386.648 939.101C393 942.484 397.644 949.016 399.272 956.857L437.217 1139.63C438.832 1147.41 437.306 1155.65 433.062 1162.05L333.93 1311.71C329.61 1318.23 322.946 1322.15 315.85 1322.33L154.739 1326.41C147.643 1326.59 140.899 1323.02 136.442 1316.72L34.1748 1172.17C29.7968 1165.98 28.0958 1157.83 29.5443 1149.97L63.575 965.37C65.0351 957.45 69.5374 950.686 75.8137 946.984L220.213 861.802Z" fill="url(#paint67_linear_470_4464)"/>
<path fill-rule="evenodd" clip-rule="evenodd" d="M66.3819 950.674L212.927 876.037C218.357 873.271 224.563 873.487 229.787 876.625L370.776 961.291C376 964.428 379.675 970.145 380.759 976.823L410.024 1157.04C411.108 1163.72 409.485 1170.63 405.613 1175.82L301.116 1315.87C297.244 1321.06 291.545 1323.97 285.632 1323.76L126.063 1318.19C120.15 1317.99 114.667 1314.7 111.166 1309.25L16.6827 1162.25C13.1816 1156.8 12.0435 1149.8 13.5906 1143.21L55.3409 965.472C56.8879 958.886 60.9517 953.439 66.3819 950.674ZM211.455 872.145C217.92 868.852 225.307 869.11 231.527 872.845L372.516 957.511C378.735 961.246 383.109 968.052 384.4 976.001L413.665 1156.22C414.956 1164.17 413.023 1172.39 408.413 1178.57L303.917 1318.63C299.308 1324.81 292.523 1328.26 285.484 1328.02L125.915 1322.45C118.875 1322.21 112.348 1318.29 108.18 1311.8L13.6967 1164.8C9.52877 1158.32 8.1739 1149.98 10.0156 1142.14L51.7659 964.399C53.6076 956.558 58.4455 950.074 64.91 946.782L211.455 872.145Z" fill="url(#paint68_linear_470_4464)"/>
</g>
<defs>
<linearGradient id="paint0_linear_470_4464" x1="1743.59" y1="1278.16" x2="1225.68" y2="173.786" gradientUnits="userSpaceOnUse">
<stop stop-color="#231722"/>
<stop offset="1" stop-color="#23E37B" stop-opacity="0.86"/>
</linearGradient>
<linearGradient id="paint1_linear_470_4464" x1="1696.67" y1="1290.02" x2="1244.53" y2="161.284" gradientUnits="userSpaceOnUse">
<stop stop-color="#231722"/>
<stop offset="1" stop-color="#23E37B" stop-opacity="0.86"/>
</linearGradient>
<linearGradient id="paint2_linear_470_4464" x1="1649.76" y1="1300.15" x2="1265.44" y2="151.445" gradientUnits="userSpaceOnUse">
<stop stop-color="#231722"/>
<stop offset="1" stop-color="#23E37B" stop-opacity="0.86"/>
</linearGradient>
<linearGradient id="paint3_linear_470_4464" x1="1602.93" y1="1308.56" x2="1288.11" y2="144.597" gradientUnits="userSpaceOnUse">
<stop stop-color="#231722"/>
<stop offset="1" stop-color="#23E37B" stop-opacity="0.86"/>
</linearGradient>
<linearGradient id="paint4_linear_470_4464" x1="1556.27" y1="1315.28" x2="1312.16" y2="141.028" gradientUnits="userSpaceOnUse">
<stop stop-color="#231722"/>
<stop offset="1" stop-color="#23E37B" stop-opacity="0.86"/>
</linearGradient>
<linearGradient id="paint5_linear_470_4464" x1="1509.86" y1="1320.33" x2="1337.19" y2="140.966" gradientUnits="userSpaceOnUse">
<stop stop-color="#231722"/>
<stop offset="1" stop-color="#23E37B" stop-opacity="0.86"/>
</linearGradient>
<linearGradient id="paint6_linear_470_4464" x1="1463.77" y1="1323.74" x2="1362.74" y2="144.576" gradientUnits="userSpaceOnUse">
<stop stop-color="#231722"/>
<stop offset="1" stop-color="#23E37B" stop-opacity="0.86"/>
</linearGradient>
<linearGradient id="paint7_linear_470_4464" x1="1418.07" y1="1325.55" x2="1388.31" y2="151.943" gradientUnits="userSpaceOnUse">
<stop stop-color="#231722"/>
<stop offset="1" stop-color="#23E37B" stop-opacity="0.86"/>
</linearGradient>
<linearGradient id="paint8_linear_470_4464" x1="1372.85" y1="1325.8" x2="1413.4" y2="163.069" gradientUnits="userSpaceOnUse">
<stop stop-color="#231722"/>
<stop offset="1" stop-color="#23E37B" stop-opacity="0.86"/>
</linearGradient>
<linearGradient id="paint9_linear_470_4464" x1="1328.16" y1="1324.53" x2="1437.52" y2="177.872" gradientUnits="userSpaceOnUse">
<stop stop-color="#231722"/>
<stop offset="1" stop-color="#23E37B" stop-opacity="0.86"/>
</linearGradient>
<linearGradient id="paint10_linear_470_4464" x1="1284.08" y1="1321.79" x2="1460.19" y2="196.19" gradientUnits="userSpaceOnUse">
<stop stop-color="#231722"/>
<stop offset="1" stop-color="#23E37B" stop-opacity="0.86"/>
</linearGradient>
<linearGradient id="paint11_linear_470_4464" x1="1240.67" y1="1317.63" x2="1480.97" y2="217.786" gradientUnits="userSpaceOnUse">
<stop stop-color="#231722"/>
<stop offset="1" stop-color="#23E37B" stop-opacity="0.86"/>
</linearGradient>
<linearGradient id="paint12_linear_470_4464" x1="1197.99" y1="1312.11" x2="1499.48" y2="242.355" gradientUnits="userSpaceOnUse">
<stop stop-color="#231722"/>
<stop offset="1" stop-color="#23E37B" stop-opacity="0.86"/>
</linearGradient>
<linearGradient id="paint13_linear_470_4464" x1="1156.11" y1="1305.29" x2="1515.38" y2="269.541" gradientUnits="userSpaceOnUse">
<stop stop-color="#231722"/>
<stop offset="1" stop-color="#23E37B" stop-opacity="0.86"/>
</linearGradient>
<linearGradient id="paint14_linear_470_4464" x1="1115.06" y1="1297.22" x2="1528.43" y2="298.951" gradientUnits="userSpaceOnUse">
<stop stop-color="#231722"/>
<stop offset="1" stop-color="#23E37B" stop-opacity="0.86"/>
</linearGradient>
<linearGradient id="paint15_linear_470_4464" x1="1074.9" y1="1287.99" x2="1538.44" y2="330.168" gradientUnits="userSpaceOnUse">
<stop stop-color="#231722"/>
<stop offset="1" stop-color="#23E37B" stop-opacity="0.86"/>
</linearGradient>
<linearGradient id="paint16_linear_470_4464" x1="1035.69" y1="1277.64" x2="1545.32" y2="362.767" gradientUnits="userSpaceOnUse">
<stop stop-color="#231722"/>
<stop offset="1" stop-color="#23E37B" stop-opacity="0.86"/>
</linearGradient>
<linearGradient id="paint17_linear_470_4464" x1="997.453" y1="1266.26" x2="1549.02" y2="396.33" gradientUnits="userSpaceOnUse">
<stop stop-color="#231722"/>
<stop offset="1" stop-color="#23E37B" stop-opacity="0.86"/>
</linearGradient>
<linearGradient id="paint18_linear_470_4464" x1="960.24" y1="1253.92" x2="1549.57" y2="430.46" gradientUnits="userSpaceOnUse">
<stop stop-color="#231722"/>
<stop offset="1" stop-color="#23E37B" stop-opacity="0.86"/>
</linearGradient>
<linearGradient id="paint19_linear_470_4464" x1="924.083" y1="1240.69" x2="1547.07" y2="464.788" gradientUnits="userSpaceOnUse">
<stop stop-color="#231722"/>
<stop offset="1" stop-color="#23E37B" stop-opacity="0.86"/>
</linearGradient>
<linearGradient id="paint20_linear_470_4464" x1="889.014" y1="1226.65" x2="1541.65" y2="498.979" gradientUnits="userSpaceOnUse">
<stop stop-color="#231722"/>
<stop offset="1" stop-color="#23E37B" stop-opacity="0.86"/>
</linearGradient>
<linearGradient id="paint21_linear_470_4464" x1="855.06" y1="1211.87" x2="1533.49" y2="532.743" gradientUnits="userSpaceOnUse">
<stop stop-color="#231722"/>
<stop offset="1" stop-color="#23E37B" stop-opacity="0.86"/>
</linearGradient>
<linearGradient id="paint22_linear_470_4464" x1="822.242" y1="1196.44" x2="1522.78" y2="565.834" gradientUnits="userSpaceOnUse">
<stop stop-color="#231722"/>
<stop offset="1" stop-color="#23E37B" stop-opacity="0.86"/>
</linearGradient>
<linearGradient id="paint23_linear_470_4464" x1="790.58" y1="1180.43" x2="1509.76" y2="598.052" gradientUnits="userSpaceOnUse">
<stop stop-color="#231722"/>
<stop offset="1" stop-color="#23E37B" stop-opacity="0.86"/>
</linearGradient>
<linearGradient id="paint24_linear_470_4464" x1="760.089" y1="1163.93" x2="1494.66" y2="629.241" gradientUnits="userSpaceOnUse">
<stop stop-color="#231722"/>
<stop offset="1" stop-color="#23E37B" stop-opacity="0.86"/>
</linearGradient>
<linearGradient id="paint25_linear_470_4464" x1="730.778" y1="1147.01" x2="1477.72" y2="659.29" gradientUnits="userSpaceOnUse">
<stop stop-color="#231722"/>
<stop offset="1" stop-color="#23E37B" stop-opacity="0.86"/>
</linearGradient>
<linearGradient id="paint26_linear_470_4464" x1="702.655" y1="1129.76" x2="1459.16" y2="688.126" gradientUnits="userSpaceOnUse">
<stop stop-color="#231722"/>
<stop offset="1" stop-color="#23E37B" stop-opacity="0.86"/>
</linearGradient>
<linearGradient id="paint27_linear_470_4464" x1="675.722" y1="1112.25" x2="1439.23" y2="715.711" gradientUnits="userSpaceOnUse">
<stop stop-color="#231722"/>
<stop offset="1" stop-color="#23E37B" stop-opacity="0.86"/>
</linearGradient>
<linearGradient id="paint28_linear_470_4464" x1="649.977" y1="1094.57" x2="1418.13" y2="742.043" gradientUnits="userSpaceOnUse">
<stop stop-color="#231722"/>
<stop offset="1" stop-color="#23E37B" stop-opacity="0.86"/>
</linearGradient>
<linearGradient id="paint29_linear_470_4464" x1="625.417" y1="1076.79" x2="1396.07" y2="767.141" gradientUnits="userSpaceOnUse">
<stop stop-color="#231722"/>
<stop offset="1" stop-color="#23E37B" stop-opacity="0.86"/>
</linearGradient>
<linearGradient id="paint30_linear_470_4464" x1="602.028" y1="1058.99" x2="1373.21" y2="791.055" gradientUnits="userSpaceOnUse">
<stop stop-color="#231722"/>
<stop offset="1" stop-color="#23E37B" stop-opacity="0.86"/>
</linearGradient>
<linearGradient id="paint31_linear_470_4464" x1="579.801" y1="1041.24" x2="1349.74" y2="813.847" gradientUnits="userSpaceOnUse">
<stop stop-color="#231722"/>
<stop offset="1" stop-color="#23E37B" stop-opacity="0.86"/>
</linearGradient>
<linearGradient id="paint32_linear_470_4464" x1="558.717" y1="1023.63" x2="1325.78" y2="835.599" gradientUnits="userSpaceOnUse">
<stop stop-color="#231722"/>
<stop offset="1" stop-color="#23E37B" stop-opacity="0.86"/>
</linearGradient>
<linearGradient id="paint33_linear_470_4464" x1="538.755" y1="1006.22" x2="1301.46" y2="856.403" gradientUnits="userSpaceOnUse">
<stop stop-color="#231722"/>
<stop offset="1" stop-color="#23E37B" stop-opacity="0.86"/>
</linearGradient>
<linearGradient id="paint34_linear_470_4464" x1="519.893" y1="989.086" x2="1276.88" y2="876.357" gradientUnits="userSpaceOnUse">
<stop stop-color="#231722"/>
<stop offset="1" stop-color="#23E37B" stop-opacity="0.86"/>
</linearGradient>
<linearGradient id="paint35_linear_470_4464" x1="502.104" y1="972.294" x2="1252.12" y2="895.568" gradientUnits="userSpaceOnUse">
<stop stop-color="#231722"/>
<stop offset="1" stop-color="#23E37B" stop-opacity="0.86"/>
</linearGradient>
<linearGradient id="paint36_linear_470_4464" x1="485.356" y1="955.911" x2="1227.24" y2="914.144" gradientUnits="userSpaceOnUse">
<stop stop-color="#231722"/>
<stop offset="1" stop-color="#23E37B" stop-opacity="0.86"/>
</linearGradient>
<linearGradient id="paint37_linear_470_4464" x1="469.617" y1="940" x2="1202.28" y2="932.193" gradientUnits="userSpaceOnUse">
<stop stop-color="#231722"/>
<stop offset="1" stop-color="#23E37B" stop-opacity="0.86"/>
</linearGradient>
<linearGradient id="paint38_linear_470_4464" x1="454.851" y1="924.623" x2="1177.26" y2="949.821" gradientUnits="userSpaceOnUse">
<stop stop-color="#231722"/>
<stop offset="1" stop-color="#23E37B" stop-opacity="0.86"/>
</linearGradient>
<linearGradient id="paint39_linear_470_4464" x1="441.02" y1="909.836" x2="1152.2" y2="967.13" gradientUnits="userSpaceOnUse">
<stop stop-color="#231722"/>
<stop offset="1" stop-color="#23E37B" stop-opacity="0.86"/>
</linearGradient>
<linearGradient id="paint40_linear_470_4464" x1="428.08" y1="895.694" x2="1127.08" y2="984.216" gradientUnits="userSpaceOnUse">
<stop stop-color="#231722"/>
<stop offset="1" stop-color="#23E37B" stop-opacity="0.86"/>
</linearGradient>
<linearGradient id="paint41_linear_470_4464" x1="415.99" y1="882.248" x2="1101.87" y2="1001.17" gradientUnits="userSpaceOnUse">
<stop stop-color="#231722"/>
<stop offset="1" stop-color="#23E37B" stop-opacity="0.86"/>
</linearGradient>
<linearGradient id="paint42_linear_470_4464" x1="404.703" y1="869.546" x2="1076.55" y2="1018.07" gradientUnits="userSpaceOnUse">
<stop stop-color="#231722"/>
<stop offset="1" stop-color="#23E37B" stop-opacity="0.86"/>
</linearGradient>
<linearGradient id="paint43_linear_470_4464" x1="394.171" y1="857.633" x2="1051.07" y2="1034.98" gradientUnits="userSpaceOnUse">
<stop stop-color="#231722"/>
<stop offset="1" stop-color="#23E37B" stop-opacity="0.86"/>
</linearGradient>
<linearGradient id="paint44_linear_470_4464" x1="384.345" y1="846.548" x2="1025.35" y2="1051.97" gradientUnits="userSpaceOnUse">
<stop stop-color="#231722"/>
<stop offset="1" stop-color="#23E37B" stop-opacity="0.86"/>
</linearGradient>
<linearGradient id="paint45_linear_470_4464" x1="375.175" y1="836.328" x2="999.347" y2="1069.07" gradientUnits="userSpaceOnUse">
<stop stop-color="#231722"/>
<stop offset="1" stop-color="#23E37B" stop-opacity="0.86"/>
</linearGradient>
<linearGradient id="paint46_linear_470_4464" x1="366.609" y1="827.007" x2="972.97" y2="1086.32" gradientUnits="userSpaceOnUse">
<stop stop-color="#231722"/>
<stop offset="1" stop-color="#23E37B" stop-opacity="0.86"/>
</linearGradient>
<linearGradient id="paint47_linear_470_4464" x1="358.59" y1="818.614" x2="946.137" y2="1103.73" gradientUnits="userSpaceOnUse">
<stop stop-color="#231722"/>
<stop offset="1" stop-color="#23E37B" stop-opacity="0.86"/>
</linearGradient>
<linearGradient id="paint48_linear_470_4464" x1="351.069" y1="811.174" x2="918.766" y2="1121.3" gradientUnits="userSpaceOnUse">
<stop stop-color="#231722"/>
<stop offset="1" stop-color="#23E37B" stop-opacity="0.86"/>
</linearGradient>
<linearGradient id="paint49_linear_470_4464" x1="343.988" y1="804.707" x2="890.767" y2="1139" gradientUnits="userSpaceOnUse">
<stop stop-color="#231722"/>
<stop offset="1" stop-color="#23E37B" stop-opacity="0.86"/>
</linearGradient>
<linearGradient id="paint50_linear_470_4464" x1="337.291" y1="799.232" x2="862.051" y2="1156.81" gradientUnits="userSpaceOnUse">
<stop stop-color="#231722"/>
<stop offset="1" stop-color="#23E37B" stop-opacity="0.86"/>
</linearGradient>
<linearGradient id="paint51_linear_470_4464" x1="330.923" y1="794.762" x2="832.536" y2="1174.66" gradientUnits="userSpaceOnUse">
<stop stop-color="#231722"/>
<stop offset="1" stop-color="#23E37B" stop-opacity="0.86"/>
</linearGradient>
<linearGradient id="paint52_linear_470_4464" x1="324.829" y1="791.306" x2="802.144" y2="1192.48" gradientUnits="userSpaceOnUse">
<stop stop-color="#231722"/>
<stop offset="1" stop-color="#23E37B" stop-opacity="0.86"/>
</linearGradient>
<linearGradient id="paint53_linear_470_4464" x1="318.952" y1="788.87" x2="770.807" y2="1210.16" gradientUnits="userSpaceOnUse">
<stop stop-color="#231722"/>
<stop offset="1" stop-color="#23E37B" stop-opacity="0.86"/>
</linearGradient>
<linearGradient id="paint54_linear_470_4464" x1="313.238" y1="787.454" x2="738.47" y2="1227.61" gradientUnits="userSpaceOnUse">
<stop stop-color="#231722"/>
<stop offset="1" stop-color="#23E37B" stop-opacity="0.86"/>
</linearGradient>
<linearGradient id="paint55_linear_470_4464" x1="307.631" y1="787.058" x2="705.093" y2="1244.69" gradientUnits="userSpaceOnUse">
<stop stop-color="#231722"/>
<stop offset="1" stop-color="#23E37B" stop-opacity="0.86"/>
</linearGradient>
<linearGradient id="paint56_linear_470_4464" x1="302.078" y1="787.675" x2="670.658" y2="1261.25" gradientUnits="userSpaceOnUse">
<stop stop-color="#231722"/>
<stop offset="1" stop-color="#23E37B" stop-opacity="0.86"/>
</linearGradient>
<linearGradient id="paint57_linear_470_4464" x1="296.523" y1="789.295" x2="635.168" y2="1277.15" gradientUnits="userSpaceOnUse">
<stop stop-color="#231722"/>
<stop offset="1" stop-color="#23E37B" stop-opacity="0.86"/>
</linearGradient>
<linearGradient id="paint58_linear_470_4464" x1="290.918" y1="791.904" x2="598.657" y2="1292.22" gradientUnits="userSpaceOnUse">
<stop stop-color="#231722"/>
<stop offset="1" stop-color="#23E37B" stop-opacity="0.86"/>
</linearGradient>
<linearGradient id="paint59_linear_470_4464" x1="285.21" y1="795.486" x2="561.181" y2="1306.3" gradientUnits="userSpaceOnUse">
<stop stop-color="#231722"/>
<stop offset="1" stop-color="#23E37B" stop-opacity="0.86"/>
</linearGradient>
<linearGradient id="paint60_linear_470_4464" x1="279.349" y1="800.022" x2="522.831" y2="1319.22" gradientUnits="userSpaceOnUse">
<stop stop-color="#231722"/>
<stop offset="1" stop-color="#23E37B" stop-opacity="0.86"/>
</linearGradient>
<linearGradient id="paint61_linear_470_4464" x1="273.289" y1="805.486" x2="483.725" y2="1330.83" gradientUnits="userSpaceOnUse">
<stop stop-color="#231722"/>
<stop offset="1" stop-color="#23E37B" stop-opacity="0.86"/>
</linearGradient>
<linearGradient id="paint62_linear_470_4464" x1="266.983" y1="811.853" x2="444.015" y2="1340.99" gradientUnits="userSpaceOnUse">
<stop stop-color="#231722"/>
<stop offset="1" stop-color="#23E37B" stop-opacity="0.86"/>
</linearGradient>
<linearGradient id="paint63_linear_470_4464" x1="260.387" y1="819.094" x2="403.875" y2="1349.59" gradientUnits="userSpaceOnUse">
<stop stop-color="#231722"/>
<stop offset="1" stop-color="#23E37B" stop-opacity="0.86"/>
</linearGradient>
<linearGradient id="paint64_linear_470_4464" x1="253.461" y1="827.174" x2="363.507" y2="1356.54" gradientUnits="userSpaceOnUse">
<stop stop-color="#231722"/>
<stop offset="1" stop-color="#23E37B" stop-opacity="0.86"/>
</linearGradient>
<linearGradient id="paint65_linear_470_4464" x1="246.25" y1="836.048" x2="323.216" y2="1361.76" gradientUnits="userSpaceOnUse">
<stop stop-color="#231722"/>
<stop offset="1" stop-color="#23E37B" stop-opacity="0.86"/>
</linearGradient>
<linearGradient id="paint66_linear_470_4464" x1="238.455" y1="845.716" x2="282.968" y2="1365.27" gradientUnits="userSpaceOnUse">
<stop stop-color="#231722"/>
<stop offset="1" stop-color="#23E37B" stop-opacity="0.86"/>
</linearGradient>
<linearGradient id="paint67_linear_470_4464" x1="230.304" y1="856.099" x2="243.262" y2="1367.05" gradientUnits="userSpaceOnUse">
<stop stop-color="#231722"/>
<stop offset="1" stop-color="#23E37B" stop-opacity="0.86"/>
</linearGradient>
<linearGradient id="paint68_linear_470_4464" x1="221.677" y1="867.169" x2="204.236" y2="1367.17" gradientUnits="userSpaceOnUse">
<stop stop-color="#231722"/>
<stop offset="1" stop-color="#23E37B" stop-opacity="0.86"/>
</linearGradient>
</defs>
</svg>
