<svg width="67" height="66" viewBox="0 0 67 66" fill="none" xmlns="http://www.w3.org/2000/svg">
<ellipse cx="33.5" cy="33" rx="33.5" ry="33" fill="#2A3941"/>
<path d="M43.0536 16H22.2107C20.8288 16 19.5034 16.4426 18.5262 17.2303C17.549 18.0181 17 19.0865 17 20.2006V28.6017H48.2644V20.2006C48.2644 19.0865 47.7154 18.0181 46.7382 17.2303C45.761 16.4426 44.4356 16 43.0536 16ZM48.2644 30.702H37.8429V34.9026H48.2644V30.702ZM48.2644 37.0029H37.8429V41.2035H48.2644V37.0029ZM48.2644 43.3038H37.8429V49.6047H43.0536C44.4356 49.6047 45.761 49.1621 46.7382 48.3743C47.7154 47.5866 48.2644 46.5181 48.2644 45.4041V43.3038ZM35.2375 49.6047V43.3038H27.4215V49.6047H35.2375ZM24.8161 49.6047V43.3038H17V45.4041C17 46.5181 17.549 47.5866 18.5262 48.3743C19.5034 49.1621 20.8288 49.6047 22.2107 49.6047H24.8161ZM17 41.2035H24.8161V37.0029H17V41.2035ZM17 34.9026H24.8161V30.702H17V34.9026ZM27.4215 34.9026V30.702H35.2375V34.9026H27.4215ZM27.4215 37.0029H35.2375V41.2035H27.4215V37.0029Z" fill="white"/>
</svg>
