<svg width="49" height="48" viewBox="0 0 49 48" fill="none" xmlns="http://www.w3.org/2000/svg">
<path d="M27.4163 19.0106C27.1042 19.0106 26.8506 18.7574 26.8506 18.445V17.4836C26.8506 17.1716 27.1038 16.918 27.4163 16.918C27.7283 16.918 27.9819 17.1712 27.9819 17.4836V18.445C27.9819 18.7574 27.7283 19.0106 27.4163 19.0106Z" fill="#103E13"/>
<path d="M25.0378 19.0106C24.7258 19.0106 24.4722 18.7574 24.4722 18.445V17.4836C24.4722 17.1716 24.7254 16.918 25.0378 16.918C25.3499 16.918 25.6035 17.1712 25.6035 17.4836V18.445C25.6031 18.7574 25.3503 19.0106 25.0378 19.0106Z" fill="#103E13"/>
<path d="M22.6599 19.0106C22.3479 19.0106 22.0942 18.7574 22.0942 18.445V17.4836C22.0942 17.1716 22.3475 16.918 22.6599 16.918C22.9719 16.918 23.2256 17.1712 23.2256 17.4836V18.445C23.2256 18.7574 22.9723 19.0106 22.6599 19.0106Z" fill="#103E13"/>
<path d="M27.4163 22.9419C27.1042 22.9419 26.8506 22.6886 26.8506 22.3762V21.4153C26.8506 21.1033 27.1038 20.8496 27.4163 20.8496C27.7283 20.8496 27.9819 21.1029 27.9819 21.4153V22.3762C27.9819 22.6886 27.7283 22.9419 27.4163 22.9419Z" fill="#103E13"/>
<path d="M25.0378 22.9419C24.7258 22.9419 24.4722 22.6886 24.4722 22.3762V21.4153C24.4722 21.1033 24.7254 20.8496 25.0378 20.8496C25.3499 20.8496 25.6035 21.1029 25.6035 21.4153V22.3762C25.6031 22.6886 25.3503 22.9419 25.0378 22.9419Z" fill="#103E13"/>
<path d="M22.6599 22.9419C22.3479 22.9419 22.0942 22.6886 22.0942 22.3762V21.4153C22.0942 21.1033 22.3475 20.8496 22.6599 20.8496C22.9719 20.8496 23.2256 21.1029 23.2256 21.4153V22.3762C23.2256 22.6886 22.9723 22.9419 22.6599 22.9419Z" fill="#103E13"/>
<path d="M27.4163 26.8734C27.1042 26.8734 26.8506 26.6202 26.8506 26.3078V25.3464C26.8506 25.0344 27.1038 24.7808 27.4163 24.7808C27.7283 24.7808 27.9819 25.034 27.9819 25.3464V26.3078C27.9819 26.6202 27.7283 26.8734 27.4163 26.8734Z" fill="#103E13"/>
<path d="M25.0378 26.8734C24.7258 26.8734 24.4722 26.6202 24.4722 26.3078V25.3464C24.4722 25.0344 24.7254 24.7808 25.0378 24.7808C25.3499 24.7808 25.6035 25.034 25.6035 25.3464V26.3078C25.6031 26.6202 25.3503 26.8734 25.0378 26.8734Z" fill="#103E13"/>
<path d="M22.6599 26.8734C22.3479 26.8734 22.0942 26.6202 22.0942 26.3078V25.3464C22.0942 25.0344 22.3475 24.7808 22.6599 24.7808C22.9719 24.7808 23.2256 25.034 23.2256 25.3464V26.3078C23.2256 26.6202 22.9723 26.8734 22.6599 26.8734Z" fill="#103E13"/>
<path d="M27.4163 30.8036C27.1042 30.8036 26.8506 30.5504 26.8506 30.2379V29.2766C26.8506 28.9646 27.1038 28.7109 27.4163 28.7109C27.7283 28.7109 27.9819 28.9642 27.9819 29.2766V30.2379C27.9819 30.5504 27.7283 30.8036 27.4163 30.8036Z" fill="#103E13"/>
<path d="M25.0378 30.8036C24.7258 30.8036 24.4722 30.5504 24.4722 30.2379V29.2766C24.4722 28.9646 24.7254 28.7109 25.0378 28.7109C25.3499 28.7109 25.6035 28.9642 25.6035 29.2766V30.2379C25.6031 30.5504 25.3503 30.8036 25.0378 30.8036Z" fill="#103E13"/>
<path d="M22.6599 30.8036C22.3479 30.8036 22.0942 30.5504 22.0942 30.2379V29.2766C22.0942 28.9646 22.3475 28.7109 22.6599 28.7109C22.9719 28.7109 23.2256 28.9642 23.2256 29.2766V30.2379C23.2256 30.5504 22.9723 30.8036 22.6599 30.8036Z" fill="#103E13"/>
<path d="M27.4163 34.7349C27.1042 34.7349 26.8506 34.4816 26.8506 34.1692V33.2083C26.8506 32.8962 27.1038 32.6426 27.4163 32.6426C27.7283 32.6426 27.9819 32.8958 27.9819 33.2083V34.1692C27.9819 34.4812 27.7283 34.7349 27.4163 34.7349Z" fill="#103E13"/>
<path d="M25.0378 34.7349C24.7258 34.7349 24.4722 34.4816 24.4722 34.1692V33.2083C24.4722 32.8962 24.7254 32.6426 25.0378 32.6426C25.3499 32.6426 25.6035 32.8958 25.6035 33.2083V34.1692C25.6031 34.4812 25.3503 34.7349 25.0378 34.7349Z" fill="#103E13"/>
<path d="M22.6599 34.7349C22.3479 34.7349 22.0942 34.4816 22.0942 34.1692L22.0946 33.2083C22.0946 32.8962 22.3479 32.6426 22.6603 32.6426C22.9723 32.6426 23.226 32.8958 23.226 33.2083V34.1692C23.2256 34.4812 22.9723 34.7349 22.6599 34.7349Z" fill="#103E13"/>
<path d="M6.50047 38.6471C6.50047 38.9592 6.75372 39.2128 7.06615 39.2128H41.5139C41.8259 39.2128 42.0796 38.9596 42.0796 38.6471C42.0796 38.3351 41.8263 38.0815 41.5139 38.0815H40.4682V21.8402C40.4682 21.5281 40.215 21.2745 39.9025 21.2745L30.6668 21.2749V9.56576C30.6668 9.36774 30.5635 9.18471 30.3946 9.08214C30.2262 8.97919 30.0156 8.97287 29.8404 9.06399L19.3401 14.531C19.1527 14.6284 19.0359 14.8217 19.0359 15.0327V25.2604H8.87388C8.56186 25.2604 8.3082 25.5137 8.3082 25.8261V38.0816H7.06489C6.75287 38.0812 6.5 38.3344 6.5 38.6468L6.50047 38.6471ZM30.667 29.8422H39.3374V38.0819L30.667 38.0815V29.8422ZM30.667 25.9113H39.3374V28.7113L30.667 28.7109V25.9113ZM30.667 22.4056H39.3374V24.7808H30.667V22.4056ZM20.1667 15.3762L29.5353 10.4982V38.081H20.1667V15.3762ZM12.2359 33.5635C12.2359 32.3895 13.166 31.4341 14.3096 31.4341C15.4531 31.4341 16.3837 32.3891 16.3837 33.5635V38.0817H12.2359V33.5635ZM9.43952 26.3916H19.0358V38.0815H17.515V33.5633C17.515 31.7657 16.0776 30.303 14.3096 30.303C12.5424 30.303 11.105 31.7653 11.105 33.5633V38.0815H9.43952V26.3916Z" fill="#103E13"/>
</svg>
