<svg width="24" height="25" viewBox="0 0 24 25" fill="none" xmlns="http://www.w3.org/2000/svg">
<path fill-rule="evenodd" clip-rule="evenodd" d="M21 6.75V21C21 21.7956 20.6839 22.5587 20.1213 23.1213C19.5587 23.6839 18.7956 24 18 24H16.5V22.5H18C18.3978 22.5 18.7794 22.342 19.0607 22.0607C19.342 21.7794 19.5 21.3978 19.5 21V6.75H16.5C15.9033 6.75 15.331 6.51295 14.909 6.09099C14.4871 5.66903 14.25 5.09674 14.25 4.5V1.5H6C5.60218 1.5 5.22064 1.65804 4.93934 1.93934C4.65804 2.22064 4.5 2.60218 4.5 3V16.5H3V3C3 2.20435 3.31607 1.44129 3.87868 0.87868C4.44129 0.316071 5.20435 0 6 0L14.25 0L21 6.75ZM5.2755 22.2615C5.28409 22.4978 5.34204 22.7298 5.44563 22.9424C5.54922 23.155 5.69616 23.3436 5.877 23.496C6.072 23.658 6.3105 23.784 6.594 23.874C6.879 23.9655 7.2105 24.0105 7.5915 24.0105C8.0985 24.0105 8.5275 23.931 8.88 23.7735C9.234 23.616 9.504 23.3955 9.6885 23.1135C9.876 22.83 9.969 22.5015 9.969 22.1295C9.969 21.7935 9.9015 21.5145 9.768 21.2895C9.63071 21.0648 9.43672 20.8801 9.2055 20.754C8.93981 20.6072 8.65364 20.501 8.3565 20.439L7.425 20.223C7.20542 20.1827 6.99807 20.0923 6.819 19.959C6.75056 19.9062 6.6954 19.8382 6.6579 19.7603C6.62039 19.6825 6.6016 19.5969 6.603 19.5105C6.603 19.2765 6.696 19.0845 6.8805 18.9345C7.068 18.783 7.3245 18.7065 7.6485 18.7065C7.863 18.7065 8.0475 18.741 8.2035 18.8085C8.34709 18.867 8.47389 18.9603 8.5725 19.08C8.66482 19.1914 8.72682 19.3247 8.7525 19.467H9.8775C9.85878 19.1615 9.75485 18.8674 9.5775 18.618C9.38792 18.3488 9.12866 18.1362 8.8275 18.003C8.45916 17.8414 8.05956 17.7635 7.6575 17.775C7.218 17.775 6.831 17.85 6.4935 18C6.156 18.1485 5.8935 18.36 5.703 18.6315C5.5125 18.9045 5.418 19.224 5.418 19.59C5.418 19.8915 5.478 20.154 5.601 20.376C5.724 20.5995 5.901 20.781 6.129 20.9265C6.357 21.069 6.627 21.177 6.9375 21.246L7.8645 21.462C8.175 21.5355 8.406 21.6315 8.559 21.7515C8.63375 21.8085 8.69355 21.8827 8.73326 21.9679C8.77298 22.0531 8.79142 22.1466 8.787 22.2405C8.7899 22.3951 8.74541 22.5469 8.6595 22.6755C8.56291 22.8072 8.42997 22.9078 8.277 22.965C8.1105 23.0355 7.9035 23.07 7.6575 23.07C7.482 23.07 7.323 23.0505 7.1775 23.01C7.04489 22.9732 6.91922 22.915 6.8055 22.8375C6.70564 22.7729 6.62015 22.6884 6.55435 22.5893C6.48854 22.4902 6.44383 22.3786 6.423 22.2615H5.2755ZM1.209 20.5395C1.209 20.1675 1.26 19.8495 1.362 19.59C1.45097 19.3504 1.60852 19.1422 1.815 18.9915C2.02545 18.8508 2.27444 18.779 2.5275 18.786C2.7525 18.786 2.952 18.834 3.1245 18.9315C3.29355 19.0218 3.43464 19.1567 3.5325 19.3215C3.63705 19.495 3.69875 19.6909 3.7125 19.893H4.86V19.785C4.85005 19.5087 4.78277 19.2375 4.66244 18.9886C4.54211 18.7396 4.37135 18.5184 4.161 18.339C3.94551 18.1564 3.69631 18.0178 3.4275 17.931C3.1348 17.8319 2.82751 17.7827 2.5185 17.7855C1.9845 17.7855 1.5285 17.8965 1.152 18.12C0.777 18.342 0.492 18.6585 0.294 19.068C0.099 19.479 0 19.968 0 20.5365V21.2835C0 21.852 0.096 22.3395 0.2895 22.7475C0.486 23.154 0.7725 23.4675 1.1475 23.6865C1.5225 23.904 1.9785 24.012 2.5185 24.012C2.958 24.012 3.3495 23.9295 3.696 23.766C4.041 23.601 4.317 23.376 4.521 23.085C4.72794 22.7871 4.84554 22.4364 4.86 22.074V21.96H3.714C3.69986 22.1531 3.63912 22.34 3.537 22.5045C3.43703 22.6638 3.29613 22.7933 3.129 22.8795C2.9417 22.9701 2.73551 23.0148 2.5275 23.01C2.27408 23.0172 2.02432 22.9482 1.8105 22.812C1.60509 22.6657 1.44874 22.4608 1.362 22.224C1.25232 21.9229 1.20042 21.6038 1.209 21.2835V20.5395ZM13.5675 23.8965H12.138L10.131 17.898H11.5065L12.8505 22.605H12.9075L14.2395 17.898H15.558L13.5675 23.8965Z" fill="#545454"/>
</svg>
