<svg width="24" height="24" viewBox="0 0 24 24" fill="none" xmlns="http://www.w3.org/2000/svg">
<path d="M1.435 23.1725H22.56C22.7258 23.1725 22.8847 23.1067 23.0019 22.9895C23.1191 22.8723 23.185 22.7133 23.185 22.5475C23.185 22.3818 23.1191 22.2228 23.0019 22.1056C22.8847 21.9884 22.7258 21.9225 22.56 21.9225H1.435C1.26924 21.9225 1.11027 21.9884 0.993056 22.1056C0.875845 22.2228 0.809998 22.3818 0.809998 22.5475C0.809998 22.7133 0.875845 22.8723 0.993056 22.9895C1.11027 23.1067 1.26924 23.1725 1.435 23.1725ZM9.1375 18.475C9.6655 18.3273 10.1473 18.0477 10.5375 17.6625L22.4625 5.73753C22.8709 5.32754 23.1002 4.77245 23.1002 4.19378C23.1002 3.61511 22.8709 3.06001 22.4625 2.65003L21.2875 1.48753C20.8717 1.09035 20.3188 0.868713 19.7437 0.868713C19.1687 0.868713 18.6158 1.09035 18.2 1.48753L6.275 13.4C5.88917 13.7877 5.61311 14.2708 5.475 14.8L4.55 18.25C4.50611 18.4076 4.50498 18.5741 4.54672 18.7322C4.58846 18.8904 4.67157 19.0346 4.7875 19.15C4.96443 19.324 5.2019 19.4225 5.45 19.425L9.1375 18.475ZM9.65 16.775C9.41956 17.0096 9.1303 17.178 8.8125 17.2625L7.6 17.5875L6.35 16.3375L6.675 15.125C6.76243 14.8084 6.93039 14.5199 7.1625 14.2875L7.6375 13.825L10.125 16.3125L9.65 16.775ZM11.0125 15.425L8.525 12.9375L16.9375 4.52503L19.425 7.01253L11.0125 15.425ZM21.575 4.86253L20.3125 6.12503L17.825 3.63753L19.0875 2.36253C19.1744 2.2753 19.2776 2.20608 19.3913 2.15885C19.505 2.11163 19.6269 2.08731 19.75 2.08731C19.8731 2.08731 19.995 2.11163 20.1087 2.15885C20.2224 2.20608 20.3256 2.2753 20.4125 2.36253L21.575 3.53753C21.7493 3.71395 21.8471 3.95199 21.8471 4.20003C21.8471 4.44806 21.7493 4.6861 21.575 4.86253Z" fill="black"/>
</svg>
